<svg xmlns="http://www.w3.org/2000/svg" viewBox="0 0 1000 370" width="1000" height="370" font-family="'JetBrains Mono','SF Mono',Menlo,Consolas,'DejaVu Sans Mono',monospace" xml:space="preserve"><defs><marker id="a3dff9a" viewBox="0 0 10 10" refX="8.5" refY="5" markerWidth="7" markerHeight="7" orient="auto-start-reverse"><path d="M0,0 L10,5 L0,10 z" fill="#3dff9a"/></marker><marker id="a1f9b5c" viewBox="0 0 10 10" refX="8.5" refY="5" markerWidth="7" markerHeight="7" orient="auto-start-reverse"><path d="M0,0 L10,5 L0,10 z" fill="#1f9b5c"/></marker><marker id="af5c542" viewBox="0 0 10 10" refX="8.5" refY="5" markerWidth="7" markerHeight="7" orient="auto-start-reverse"><path d="M0,0 L10,5 L0,10 z" fill="#f5c542"/></marker><marker id="a5ad7ff" viewBox="0 0 10 10" refX="8.5" refY="5" markerWidth="7" markerHeight="7" orient="auto-start-reverse"><path d="M0,0 L10,5 L0,10 z" fill="#5ad7ff"/></marker><marker id="aff7edb" viewBox="0 0 10 10" refX="8.5" refY="5" markerWidth="7" markerHeight="7" orient="auto-start-reverse"><path d="M0,0 L10,5 L0,10 z" fill="#ff7edb"/></marker><marker id="aa78bfa" viewBox="0 0 10 10" refX="8.5" refY="5" markerWidth="7" markerHeight="7" orient="auto-start-reverse"><path d="M0,0 L10,5 L0,10 z" fill="#a78bfa"/></marker><marker id="aff9f5a" viewBox="0 0 10 10" refX="8.5" refY="5" markerWidth="7" markerHeight="7" orient="auto-start-reverse"><path d="M0,0 L10,5 L0,10 z" fill="#ff9f5a"/></marker><marker id="aff5f56" viewBox="0 0 10 10" refX="8.5" refY="5" markerWidth="7" markerHeight="7" orient="auto-start-reverse"><path d="M0,0 L10,5 L0,10 z" fill="#ff5f56"/></marker><marker id="a7f8e89" viewBox="0 0 10 10" refX="8.5" refY="5" markerWidth="7" markerHeight="7" orient="auto-start-reverse"><path d="M0,0 L10,5 L0,10 z" fill="#7f8e89"/></marker><marker id="ad3ddd8" viewBox="0 0 10 10" refX="8.5" refY="5" markerWidth="7" markerHeight="7" orient="auto-start-reverse"><path d="M0,0 L10,5 L0,10 z" fill="#d3ddd8"/></marker><filter id="glow" x="-30%" y="-30%" width="160%" height="160%"><feGaussianBlur stdDeviation="2.4" result="b"/><feMerge><feMergeNode in="b"/><feMergeNode in="SourceGraphic"/></feMerge></filter><pattern id="dots" width="20" height="20" patternUnits="userSpaceOnUse"><circle cx="1" cy="1" r="1" fill="#1d2729"/></pattern></defs><rect width="1000" height="370" fill="#0c1011"/><rect width="1000" height="370" fill="url(#dots)"/><rect width="1000" height="34" fill="#121819"/><line x1="0" y1="34" x2="1000" y2="34" stroke="#1d2729"/><circle cx="20" cy="17" r="5.5" fill="#ff5f56"/><circle cx="38" cy="17" r="5.5" fill="#ffbd2e"/><circle cx="56" cy="17" r="5.5" fill="#27c93f"/><text x="500.0" y="21.5" font-size="12" fill="#7f8e89" text-anchor="middle">~/workshop/scratchGPT/feedforward.svg</text><rect x="105.0" y="178.0" width="18.0" height="18.0" rx="0" fill="#ff9f5a" fill-opacity="0.22" stroke="#ff9f5a" stroke-opacity="0.85" stroke-width="1.1"/><rect x="123.0" y="178.0" width="18.0" height="18.0" rx="0" fill="#ff9f5a" fill-opacity="0.22" stroke="#ff9f5a" stroke-opacity="0.85" stroke-width="1.1"/><rect x="141.0" y="178.0" width="18.0" height="18.0" rx="0" fill="#ff9f5a" fill-opacity="0.22" stroke="#ff9f5a" stroke-opacity="0.85" stroke-width="1.1"/><rect x="159.0" y="178.0" width="18.0" height="18.0" rx="0" fill="#ff9f5a" fill-opacity="0.22" stroke="#ff9f5a" stroke-opacity="0.85" stroke-width="1.1"/><rect x="177.0" y="178.0" width="18.0" height="18.0" rx="0" fill="#ff9f5a" fill-opacity="0.22" stroke="#ff9f5a" stroke-opacity="0.85" stroke-width="1.1"/><rect x="105.0" y="196.0" width="18.0" height="18.0" rx="0" fill="#f5c542" fill-opacity="0.22" stroke="#f5c542" stroke-opacity="0.85" stroke-width="1.1"/><rect x="123.0" y="196.0" width="18.0" height="18.0" rx="0" fill="#f5c542" fill-opacity="0.22" stroke="#f5c542" stroke-opacity="0.85" stroke-width="1.1"/><rect x="141.0" y="196.0" width="18.0" height="18.0" rx="0" fill="#f5c542" fill-opacity="0.22" stroke="#f5c542" stroke-opacity="0.85" stroke-width="1.1"/><rect x="159.0" y="196.0" width="18.0" height="18.0" rx="0" fill="#f5c542" fill-opacity="0.22" stroke="#f5c542" stroke-opacity="0.85" stroke-width="1.1"/><rect x="177.0" y="196.0" width="18.0" height="18.0" rx="0" fill="#f5c542" fill-opacity="0.22" stroke="#f5c542" stroke-opacity="0.85" stroke-width="1.1"/><rect x="105.0" y="214.0" width="18.0" height="18.0" rx="0" fill="#3dff9a" fill-opacity="0.22" stroke="#3dff9a" stroke-opacity="0.85" stroke-width="1.1"/><rect x="123.0" y="214.0" width="18.0" height="18.0" rx="0" fill="#3dff9a" fill-opacity="0.22" stroke="#3dff9a" stroke-opacity="0.85" stroke-width="1.1"/><rect x="141.0" y="214.0" width="18.0" height="18.0" rx="0" fill="#3dff9a" fill-opacity="0.22" stroke="#3dff9a" stroke-opacity="0.85" stroke-width="1.1"/><rect x="159.0" y="214.0" width="18.0" height="18.0" rx="0" fill="#3dff9a" fill-opacity="0.22" stroke="#3dff9a" stroke-opacity="0.85" stroke-width="1.1"/><rect x="177.0" y="214.0" width="18.0" height="18.0" rx="0" fill="#3dff9a" fill-opacity="0.22" stroke="#3dff9a" stroke-opacity="0.85" stroke-width="1.1"/><text x="114.0" y="171.0" font-size="11" fill="#7f8e89" text-anchor="middle" font-weight="400" fill-opacity="1.0">a</text><text x="132.0" y="171.0" font-size="11" fill="#7f8e89" text-anchor="middle" font-weight="400" fill-opacity="1.0">c</text><text x="150.0" y="171.0" font-size="11" fill="#7f8e89" text-anchor="middle" font-weight="400" fill-opacity="1.0">c</text><text x="168.0" y="171.0" font-size="11" fill="#7f8e89" text-anchor="middle" font-weight="400" fill-opacity="1.0">o</text><text x="186.0" y="171.0" font-size="11" fill="#7f8e89" text-anchor="middle" font-weight="400" fill-opacity="1.0">u</text><text x="150.0" y="345.0" font-size="11" fill="#7f8e89" text-anchor="middle" font-weight="400" fill-opacity="1.0">x  (C)</text><path d="M220.0,178.0 L310.0,97.0 L310.0,313.0 L220.0,232.0 Z" fill="#121819" stroke="#1f9b5c" stroke-width="1.4"/><text x="265.0" y="203.0" font-size="13" fill="#3dff9a" text-anchor="middle" font-weight="700" fill-opacity="1.0">Linear</text><text x="265.0" y="219.0" font-size="10" fill="#7f8e89" text-anchor="middle" font-weight="400" fill-opacity="1.0">C → 4C</text><path d="M199.0,205.0 L216.0,205.0" fill="none" stroke="#1f9b5c" stroke-width="1.4" stroke-opacity="1.0" stroke-linecap="round" stroke-linejoin="round"/><rect x="330.0" y="97.0" width="18.0" height="18.0" rx="0" fill="#5ad7ff" fill-opacity="0.14" stroke="#5ad7ff" stroke-opacity="0.85" stroke-width="1.1"/><rect x="348.0" y="97.0" width="18.0" height="18.0" rx="0" fill="#5ad7ff" fill-opacity="0.23" stroke="#5ad7ff" stroke-opacity="0.85" stroke-width="1.1"/><rect x="366.0" y="97.0" width="18.0" height="18.0" rx="0" fill="#5ad7ff" fill-opacity="0.17" stroke="#5ad7ff" stroke-opacity="0.85" stroke-width="1.1"/><rect x="384.0" y="97.0" width="18.0" height="18.0" rx="0" fill="#5ad7ff" fill-opacity="0.26" stroke="#5ad7ff" stroke-opacity="0.85" stroke-width="1.1"/><rect x="402.0" y="97.0" width="18.0" height="18.0" rx="0" fill="#5ad7ff" fill-opacity="0.2" stroke="#5ad7ff" stroke-opacity="0.85" stroke-width="1.1"/><rect x="330.0" y="115.0" width="18.0" height="18.0" rx="0" fill="#a78bfa" fill-opacity="0.2" stroke="#a78bfa" stroke-opacity="0.85" stroke-width="1.1"/><rect x="348.0" y="115.0" width="18.0" height="18.0" rx="0" fill="#a78bfa" fill-opacity="0.14" stroke="#a78bfa" stroke-opacity="0.85" stroke-width="1.1"/><rect x="366.0" y="115.0" width="18.0" height="18.0" rx="0" fill="#a78bfa" fill-opacity="0.23" stroke="#a78bfa" stroke-opacity="0.85" stroke-width="1.1"/><rect x="384.0" y="115.0" width="18.0" height="18.0" rx="0" fill="#a78bfa" fill-opacity="0.17" stroke="#a78bfa" stroke-opacity="0.85" stroke-width="1.1"/><rect x="402.0" y="115.0" width="18.0" height="18.0" rx="0" fill="#a78bfa" fill-opacity="0.26" stroke="#a78bfa" stroke-opacity="0.85" stroke-width="1.1"/><rect x="330.0" y="133.0" width="18.0" height="18.0" rx="0" fill="#ff7edb" fill-opacity="0.26" stroke="#ff7edb" stroke-opacity="0.85" stroke-width="1.1"/><rect x="348.0" y="133.0" width="18.0" height="18.0" rx="0" fill="#ff7edb" fill-opacity="0.2" stroke="#ff7edb" stroke-opacity="0.85" stroke-width="1.1"/><rect x="366.0" y="133.0" width="18.0" height="18.0" rx="0" fill="#ff7edb" fill-opacity="0.14" stroke="#ff7edb" stroke-opacity="0.85" stroke-width="1.1"/><rect x="384.0" y="133.0" width="18.0" height="18.0" rx="0" fill="#ff7edb" fill-opacity="0.23" stroke="#ff7edb" stroke-opacity="0.85" stroke-width="1.1"/><rect x="402.0" y="133.0" width="18.0" height="18.0" rx="0" fill="#ff7edb" fill-opacity="0.17" stroke="#ff7edb" stroke-opacity="0.85" stroke-width="1.1"/><rect x="330.0" y="151.0" width="18.0" height="18.0" rx="0" fill="#5ad7ff" fill-opacity="0.17" stroke="#5ad7ff" stroke-opacity="0.85" stroke-width="1.1"/><rect x="348.0" y="151.0" width="18.0" height="18.0" rx="0" fill="#5ad7ff" fill-opacity="0.26" stroke="#5ad7ff" stroke-opacity="0.85" stroke-width="1.1"/><rect x="366.0" y="151.0" width="18.0" height="18.0" rx="0" fill="#5ad7ff" fill-opacity="0.2" stroke="#5ad7ff" stroke-opacity="0.85" stroke-width="1.1"/><rect x="384.0" y="151.0" width="18.0" height="18.0" rx="0" fill="#5ad7ff" fill-opacity="0.14" stroke="#5ad7ff" stroke-opacity="0.85" stroke-width="1.1"/><rect x="402.0" y="151.0" width="18.0" height="18.0" rx="0" fill="#5ad7ff" fill-opacity="0.23" stroke="#5ad7ff" stroke-opacity="0.85" stroke-width="1.1"/><rect x="330.0" y="169.0" width="18.0" height="18.0" rx="0" fill="#a78bfa" fill-opacity="0.23" stroke="#a78bfa" stroke-opacity="0.85" stroke-width="1.1"/><rect x="348.0" y="169.0" width="18.0" height="18.0" rx="0" fill="#a78bfa" fill-opacity="0.17" stroke="#a78bfa" stroke-opacity="0.85" stroke-width="1.1"/><rect x="366.0" y="169.0" width="18.0" height="18.0" rx="0" fill="#a78bfa" fill-opacity="0.26" stroke="#a78bfa" stroke-opacity="0.85" stroke-width="1.1"/><rect x="384.0" y="169.0" width="18.0" height="18.0" rx="0" fill="#a78bfa" fill-opacity="0.2" stroke="#a78bfa" stroke-opacity="0.85" stroke-width="1.1"/><rect x="402.0" y="169.0" width="18.0" height="18.0" rx="0" fill="#a78bfa" fill-opacity="0.14" stroke="#a78bfa" stroke-opacity="0.85" stroke-width="1.1"/><rect x="330.0" y="187.0" width="18.0" height="18.0" rx="0" fill="#ff7edb" fill-opacity="0.14" stroke="#ff7edb" stroke-opacity="0.85" stroke-width="1.1"/><rect x="348.0" y="187.0" width="18.0" height="18.0" rx="0" fill="#ff7edb" fill-opacity="0.23" stroke="#ff7edb" stroke-opacity="0.85" stroke-width="1.1"/><rect x="366.0" y="187.0" width="18.0" height="18.0" rx="0" fill="#ff7edb" fill-opacity="0.17" stroke="#ff7edb" stroke-opacity="0.85" stroke-width="1.1"/><rect x="384.0" y="187.0" width="18.0" height="18.0" rx="0" fill="#ff7edb" fill-opacity="0.26" stroke="#ff7edb" stroke-opacity="0.85" stroke-width="1.1"/><rect x="402.0" y="187.0" width="18.0" height="18.0" rx="0" fill="#ff7edb" fill-opacity="0.2" stroke="#ff7edb" stroke-opacity="0.85" stroke-width="1.1"/><rect x="330.0" y="205.0" width="18.0" height="18.0" rx="0" fill="#5ad7ff" fill-opacity="0.2" stroke="#5ad7ff" stroke-opacity="0.85" stroke-width="1.1"/><rect x="348.0" y="205.0" width="18.0" height="18.0" rx="0" fill="#5ad7ff" fill-opacity="0.14" stroke="#5ad7ff" stroke-opacity="0.85" stroke-width="1.1"/><rect x="366.0" y="205.0" width="18.0" height="18.0" rx="0" fill="#5ad7ff" fill-opacity="0.23" stroke="#5ad7ff" stroke-opacity="0.85" stroke-width="1.1"/><rect x="384.0" y="205.0" width="18.0" height="18.0" rx="0" fill="#5ad7ff" fill-opacity="0.17" stroke="#5ad7ff" stroke-opacity="0.85" stroke-width="1.1"/><rect x="402.0" y="205.0" width="18.0" height="18.0" rx="0" fill="#5ad7ff" fill-opacity="0.26" stroke="#5ad7ff" stroke-opacity="0.85" stroke-width="1.1"/><rect x="330.0" y="223.0" width="18.0" height="18.0" rx="0" fill="#a78bfa" fill-opacity="0.26" stroke="#a78bfa" stroke-opacity="0.85" stroke-width="1.1"/><rect x="348.0" y="223.0" width="18.0" height="18.0" rx="0" fill="#a78bfa" fill-opacity="0.2" stroke="#a78bfa" stroke-opacity="0.85" stroke-width="1.1"/><rect x="366.0" y="223.0" width="18.0" height="18.0" rx="0" fill="#a78bfa" fill-opacity="0.14" stroke="#a78bfa" stroke-opacity="0.85" stroke-width="1.1"/><rect x="384.0" y="223.0" width="18.0" height="18.0" rx="0" fill="#a78bfa" fill-opacity="0.23" stroke="#a78bfa" stroke-opacity="0.85" stroke-width="1.1"/><rect x="402.0" y="223.0" width="18.0" height="18.0" rx="0" fill="#a78bfa" fill-opacity="0.17" stroke="#a78bfa" stroke-opacity="0.85" stroke-width="1.1"/><rect x="330.0" y="241.0" width="18.0" height="18.0" rx="0" fill="#ff7edb" fill-opacity="0.17" stroke="#ff7edb" stroke-opacity="0.85" stroke-width="1.1"/><rect x="348.0" y="241.0" width="18.0" height="18.0" rx="0" fill="#ff7edb" fill-opacity="0.26" stroke="#ff7edb" stroke-opacity="0.85" stroke-width="1.1"/><rect x="366.0" y="241.0" width="18.0" height="18.0" rx="0" fill="#ff7edb" fill-opacity="0.2" stroke="#ff7edb" stroke-opacity="0.85" stroke-width="1.1"/><rect x="384.0" y="241.0" width="18.0" height="18.0" rx="0" fill="#ff7edb" fill-opacity="0.14" stroke="#ff7edb" stroke-opacity="0.85" stroke-width="1.1"/><rect x="402.0" y="241.0" width="18.0" height="18.0" rx="0" fill="#ff7edb" fill-opacity="0.23" stroke="#ff7edb" stroke-opacity="0.85" stroke-width="1.1"/><rect x="330.0" y="259.0" width="18.0" height="18.0" rx="0" fill="#5ad7ff" fill-opacity="0.23" stroke="#5ad7ff" stroke-opacity="0.85" stroke-width="1.1"/><rect x="348.0" y="259.0" width="18.0" height="18.0" rx="0" fill="#5ad7ff" fill-opacity="0.17" stroke="#5ad7ff" stroke-opacity="0.85" stroke-width="1.1"/><rect x="366.0" y="259.0" width="18.0" height="18.0" rx="0" fill="#5ad7ff" fill-opacity="0.26" stroke="#5ad7ff" stroke-opacity="0.85" stroke-width="1.1"/><rect x="384.0" y="259.0" width="18.0" height="18.0" rx="0" fill="#5ad7ff" fill-opacity="0.2" stroke="#5ad7ff" stroke-opacity="0.85" stroke-width="1.1"/><rect x="402.0" y="259.0" width="18.0" height="18.0" rx="0" fill="#5ad7ff" fill-opacity="0.14" stroke="#5ad7ff" stroke-opacity="0.85" stroke-width="1.1"/><rect x="330.0" y="277.0" width="18.0" height="18.0" rx="0" fill="#a78bfa" fill-opacity="0.14" stroke="#a78bfa" stroke-opacity="0.85" stroke-width="1.1"/><rect x="348.0" y="277.0" width="18.0" height="18.0" rx="0" fill="#a78bfa" fill-opacity="0.23" stroke="#a78bfa" stroke-opacity="0.85" stroke-width="1.1"/><rect x="366.0" y="277.0" width="18.0" height="18.0" rx="0" fill="#a78bfa" fill-opacity="0.17" stroke="#a78bfa" stroke-opacity="0.85" stroke-width="1.1"/><rect x="384.0" y="277.0" width="18.0" height="18.0" rx="0" fill="#a78bfa" fill-opacity="0.26" stroke="#a78bfa" stroke-opacity="0.85" stroke-width="1.1"/><rect x="402.0" y="277.0" width="18.0" height="18.0" rx="0" fill="#a78bfa" fill-opacity="0.2" stroke="#a78bfa" stroke-opacity="0.85" stroke-width="1.1"/><rect x="330.0" y="295.0" width="18.0" height="18.0" rx="0" fill="#ff7edb" fill-opacity="0.2" stroke="#ff7edb" stroke-opacity="0.85" stroke-width="1.1"/><rect x="348.0" y="295.0" width="18.0" height="18.0" rx="0" fill="#ff7edb" fill-opacity="0.14" stroke="#ff7edb" stroke-opacity="0.85" stroke-width="1.1"/><rect x="366.0" y="295.0" width="18.0" height="18.0" rx="0" fill="#ff7edb" fill-opacity="0.23" stroke="#ff7edb" stroke-opacity="0.85" stroke-width="1.1"/><rect x="384.0" y="295.0" width="18.0" height="18.0" rx="0" fill="#ff7edb" fill-opacity="0.17" stroke="#ff7edb" stroke-opacity="0.85" stroke-width="1.1"/><rect x="402.0" y="295.0" width="18.0" height="18.0" rx="0" fill="#ff7edb" fill-opacity="0.26" stroke="#ff7edb" stroke-opacity="0.85" stroke-width="1.1"/><text x="375.0" y="345.0" font-size="11" fill="#7f8e89" text-anchor="middle" font-weight="400" fill-opacity="1.0">hidden (4C)</text><rect x="445.0" y="191.0" width="70.0" height="28.0" rx="14.0" fill="#f5c542" fill-opacity="0.12" stroke="#f5c542" stroke-opacity="0.9" stroke-width="1.2"/><text x="480.0" y="209.2" font-size="12" fill="#f5c542" text-anchor="middle" font-weight="600" fill-opacity="1.0">ReLU</text><path d="M424.0,205.0 L442.0,205.0" fill="none" stroke="#1f9b5c" stroke-width="1.4" stroke-opacity="1.0" stroke-linecap="round" stroke-linejoin="round" marker-end="url(#a1f9b5c)"/><path d="M535.0,97.0 L625.0,178.0 L625.0,232.0 L535.0,313.0 Z" fill="#121819" stroke="#1f9b5c" stroke-width="1.4"/><text x="580.0" y="203.0" font-size="13" fill="#3dff9a" text-anchor="middle" font-weight="700" fill-opacity="1.0">Linear</text><text x="580.0" y="219.0" font-size="10" fill="#7f8e89" text-anchor="middle" font-weight="400" fill-opacity="1.0">4C → C</text><path d="M516.0,205.0 L531.0,205.0" fill="none" stroke="#1f9b5c" stroke-width="1.4" stroke-opacity="1.0" stroke-linecap="round" stroke-linejoin="round" marker-end="url(#a1f9b5c)"/><rect x="636.0" y="191.0" width="88.0" height="28.0" rx="14.0" fill="#a78bfa" fill-opacity="0.12" stroke="#a78bfa" stroke-opacity="0.9" stroke-width="1.2"/><text x="680.0" y="209.2" font-size="12" fill="#a78bfa" text-anchor="middle" font-weight="600" fill-opacity="1.0">Dropout</text><path d="M626.0,205.0 L634.0,205.0" fill="none" stroke="#1f9b5c" stroke-width="1.4" stroke-opacity="1.0" stroke-linecap="round" stroke-linejoin="round"/><path d="M626.0,205.0 L633.0,205.0" fill="none" stroke="#1f9b5c" stroke-width="1.4" stroke-opacity="1.0" stroke-linecap="round" stroke-linejoin="round" marker-end="url(#a1f9b5c)"/><rect x="750.0" y="178.0" width="18.0" height="18.0" rx="0" fill="#3dff9a" fill-opacity="0.15" stroke="#3dff9a" stroke-opacity="0.85" stroke-width="1.1"/><rect x="768.0" y="178.0" width="18.0" height="18.0" rx="0" fill="#3dff9a" fill-opacity="0.15" stroke="#3dff9a" stroke-opacity="0.85" stroke-width="1.1"/><rect x="786.0" y="178.0" width="18.0" height="18.0" rx="0" fill="#3dff9a" fill-opacity="0.15" stroke="#3dff9a" stroke-opacity="0.85" stroke-width="1.1"/><rect x="804.0" y="178.0" width="18.0" height="18.0" rx="0" fill="#3dff9a" fill-opacity="0.15" stroke="#3dff9a" stroke-opacity="0.85" stroke-width="1.1"/><rect x="822.0" y="178.0" width="18.0" height="18.0" rx="0" fill="#3dff9a" fill-opacity="0.15" stroke="#3dff9a" stroke-opacity="0.85" stroke-width="1.1"/><rect x="750.0" y="196.0" width="18.0" height="18.0" rx="0" fill="#3dff9a" fill-opacity="0.27" stroke="#3dff9a" stroke-opacity="0.85" stroke-width="1.1"/><rect x="768.0" y="196.0" width="18.0" height="18.0" rx="0" fill="#3dff9a" fill-opacity="0.27" stroke="#3dff9a" stroke-opacity="0.85" stroke-width="1.1"/><rect x="786.0" y="196.0" width="18.0" height="18.0" rx="0" fill="#3dff9a" fill-opacity="0.27" stroke="#3dff9a" stroke-opacity="0.85" stroke-width="1.1"/><rect x="804.0" y="196.0" width="18.0" height="18.0" rx="0" fill="#3dff9a" fill-opacity="0.27" stroke="#3dff9a" stroke-opacity="0.85" stroke-width="1.1"/><rect x="822.0" y="196.0" width="18.0" height="18.0" rx="0" fill="#3dff9a" fill-opacity="0.27" stroke="#3dff9a" stroke-opacity="0.85" stroke-width="1.1"/><rect x="750.0" y="214.0" width="18.0" height="18.0" rx="0" fill="#3dff9a" fill-opacity="0.39" stroke="#3dff9a" stroke-opacity="0.85" stroke-width="1.1"/><rect x="768.0" y="214.0" width="18.0" height="18.0" rx="0" fill="#3dff9a" fill-opacity="0.39" stroke="#3dff9a" stroke-opacity="0.85" stroke-width="1.1"/><rect x="786.0" y="214.0" width="18.0" height="18.0" rx="0" fill="#3dff9a" fill-opacity="0.39" stroke="#3dff9a" stroke-opacity="0.85" stroke-width="1.1"/><rect x="804.0" y="214.0" width="18.0" height="18.0" rx="0" fill="#3dff9a" fill-opacity="0.39" stroke="#3dff9a" stroke-opacity="0.85" stroke-width="1.1"/><rect x="822.0" y="214.0" width="18.0" height="18.0" rx="0" fill="#3dff9a" fill-opacity="0.39" stroke="#3dff9a" stroke-opacity="0.85" stroke-width="1.1"/><path d="M725.0,205.0 L744.0,205.0" fill="none" stroke="#3dff9a" stroke-width="1.4" stroke-opacity="1.0" stroke-linecap="round" stroke-linejoin="round" marker-end="url(#a3dff9a)"/><text x="795.0" y="345.0" font-size="11" fill="#7f8e89" text-anchor="middle" font-weight="400" fill-opacity="1.0">out  (C)</text><text x="500.0" y="66.0" font-size="12" fill="#7f8e89" text-anchor="middle" font-weight="400" fill-opacity="1.0">the same small MLP is applied to every position independently</text></svg>
