<svg xmlns="http://www.w3.org/2000/svg" viewBox="0 0 1000 480" width="1000" height="480" font-family="'JetBrains Mono','SF Mono',Menlo,Consolas,'DejaVu Sans Mono',monospace" xml:space="preserve"><defs><marker id="a3dff9a" viewBox="0 0 10 10" refX="8.5" refY="5" markerWidth="7" markerHeight="7" orient="auto-start-reverse"><path d="M0,0 L10,5 L0,10 z" fill="#3dff9a"/></marker><marker id="a1f9b5c" viewBox="0 0 10 10" refX="8.5" refY="5" markerWidth="7" markerHeight="7" orient="auto-start-reverse"><path d="M0,0 L10,5 L0,10 z" fill="#1f9b5c"/></marker><marker id="af5c542" viewBox="0 0 10 10" refX="8.5" refY="5" markerWidth="7" markerHeight="7" orient="auto-start-reverse"><path d="M0,0 L10,5 L0,10 z" fill="#f5c542"/></marker><marker id="a5ad7ff" viewBox="0 0 10 10" refX="8.5" refY="5" markerWidth="7" markerHeight="7" orient="auto-start-reverse"><path d="M0,0 L10,5 L0,10 z" fill="#5ad7ff"/></marker><marker id="aff7edb" viewBox="0 0 10 10" refX="8.5" refY="5" markerWidth="7" markerHeight="7" orient="auto-start-reverse"><path d="M0,0 L10,5 L0,10 z" fill="#ff7edb"/></marker><marker id="aa78bfa" viewBox="0 0 10 10" refX="8.5" refY="5" markerWidth="7" markerHeight="7" orient="auto-start-reverse"><path d="M0,0 L10,5 L0,10 z" fill="#a78bfa"/></marker><marker id="aff9f5a" viewBox="0 0 10 10" refX="8.5" refY="5" markerWidth="7" markerHeight="7" orient="auto-start-reverse"><path d="M0,0 L10,5 L0,10 z" fill="#ff9f5a"/></marker><marker id="aff5f56" viewBox="0 0 10 10" refX="8.5" refY="5" markerWidth="7" markerHeight="7" orient="auto-start-reverse"><path d="M0,0 L10,5 L0,10 z" fill="#ff5f56"/></marker><marker id="a7f8e89" viewBox="0 0 10 10" refX="8.5" refY="5" markerWidth="7" markerHeight="7" orient="auto-start-reverse"><path d="M0,0 L10,5 L0,10 z" fill="#7f8e89"/></marker><marker id="ad3ddd8" viewBox="0 0 10 10" refX="8.5" refY="5" markerWidth="7" markerHeight="7" orient="auto-start-reverse"><path d="M0,0 L10,5 L0,10 z" fill="#d3ddd8"/></marker><filter id="glow" x="-30%" y="-30%" width="160%" height="160%"><feGaussianBlur stdDeviation="2.4" result="b"/><feMerge><feMergeNode in="b"/><feMergeNode in="SourceGraphic"/></feMerge></filter><pattern id="dots" width="20" height="20" patternUnits="userSpaceOnUse"><circle cx="1" cy="1" r="1" fill="#1d2729"/></pattern></defs><rect width="1000" height="480" fill="#0c1011"/><rect width="1000" height="480" fill="url(#dots)"/><rect width="1000" height="34" fill="#121819"/><line x1="0" y1="34" x2="1000" y2="34" stroke="#1d2729"/><circle cx="20" cy="17" r="5.5" fill="#ff5f56"/><circle cx="38" cy="17" r="5.5" fill="#ffbd2e"/><circle cx="56" cy="17" r="5.5" fill="#27c93f"/><text x="500.0" y="21.5" font-size="12" fill="#7f8e89" text-anchor="middle">~/workshop/scratchGPT/multi_head_attention.svg</text><rect x="40.0" y="228.0" width="18.0" height="18.0" rx="0" fill="#ff9f5a" fill-opacity="0.22" stroke="#ff9f5a" stroke-opacity="0.85" stroke-width="1.1"/><rect x="58.0" y="228.0" width="18.0" height="18.0" rx="0" fill="#ff9f5a" fill-opacity="0.22" stroke="#ff9f5a" stroke-opacity="0.85" stroke-width="1.1"/><rect x="76.0" y="228.0" width="18.0" height="18.0" rx="0" fill="#ff9f5a" fill-opacity="0.22" stroke="#ff9f5a" stroke-opacity="0.85" stroke-width="1.1"/><rect x="94.0" y="228.0" width="18.0" height="18.0" rx="0" fill="#ff9f5a" fill-opacity="0.22" stroke="#ff9f5a" stroke-opacity="0.85" stroke-width="1.1"/><rect x="112.0" y="228.0" width="18.0" height="18.0" rx="0" fill="#ff9f5a" fill-opacity="0.22" stroke="#ff9f5a" stroke-opacity="0.85" stroke-width="1.1"/><rect x="40.0" y="246.0" width="18.0" height="18.0" rx="0" fill="#f5c542" fill-opacity="0.22" stroke="#f5c542" stroke-opacity="0.85" stroke-width="1.1"/><rect x="58.0" y="246.0" width="18.0" height="18.0" rx="0" fill="#f5c542" fill-opacity="0.22" stroke="#f5c542" stroke-opacity="0.85" stroke-width="1.1"/><rect x="76.0" y="246.0" width="18.0" height="18.0" rx="0" fill="#f5c542" fill-opacity="0.22" stroke="#f5c542" stroke-opacity="0.85" stroke-width="1.1"/><rect x="94.0" y="246.0" width="18.0" height="18.0" rx="0" fill="#f5c542" fill-opacity="0.22" stroke="#f5c542" stroke-opacity="0.85" stroke-width="1.1"/><rect x="112.0" y="246.0" width="18.0" height="18.0" rx="0" fill="#f5c542" fill-opacity="0.22" stroke="#f5c542" stroke-opacity="0.85" stroke-width="1.1"/><rect x="40.0" y="264.0" width="18.0" height="18.0" rx="0" fill="#3dff9a" fill-opacity="0.22" stroke="#3dff9a" stroke-opacity="0.85" stroke-width="1.1"/><rect x="58.0" y="264.0" width="18.0" height="18.0" rx="0" fill="#3dff9a" fill-opacity="0.22" stroke="#3dff9a" stroke-opacity="0.85" stroke-width="1.1"/><rect x="76.0" y="264.0" width="18.0" height="18.0" rx="0" fill="#3dff9a" fill-opacity="0.22" stroke="#3dff9a" stroke-opacity="0.85" stroke-width="1.1"/><rect x="94.0" y="264.0" width="18.0" height="18.0" rx="0" fill="#3dff9a" fill-opacity="0.22" stroke="#3dff9a" stroke-opacity="0.85" stroke-width="1.1"/><rect x="112.0" y="264.0" width="18.0" height="18.0" rx="0" fill="#3dff9a" fill-opacity="0.22" stroke="#3dff9a" stroke-opacity="0.85" stroke-width="1.1"/><text x="49.0" y="221.0" font-size="11" fill="#7f8e89" text-anchor="middle" font-weight="400" fill-opacity="1.0">a</text><text x="67.0" y="221.0" font-size="11" fill="#7f8e89" text-anchor="middle" font-weight="400" fill-opacity="1.0">c</text><text x="85.0" y="221.0" font-size="11" fill="#7f8e89" text-anchor="middle" font-weight="400" fill-opacity="1.0">c</text><text x="103.0" y="221.0" font-size="11" fill="#7f8e89" text-anchor="middle" font-weight="400" fill-opacity="1.0">o</text><text x="121.0" y="221.0" font-size="11" fill="#7f8e89" text-anchor="middle" font-weight="400" fill-opacity="1.0">u</text><text x="85.0" y="203.0" font-size="14" fill="#f5c542" text-anchor="middle" font-weight="700" fill-opacity="1.0" font-style="italic">X</text><text x="85.0" y="303.0" font-size="11" fill="#7f8e89" text-anchor="middle" font-weight="400" fill-opacity="1.0">embeddings</text><path d="M136,255 C170,255 150,145.0 184,145.0" fill="none" stroke="#1f9b5c" stroke-width="1.4" stroke-opacity="1.0" stroke-linecap="round" stroke-linejoin="round" marker-end="url(#a1f9b5c)"/><rect x="190.0" y="95.0" width="260.0" height="100.0" rx="8" fill="#121819" fill-opacity="1.0" stroke="#5ad7ff" stroke-opacity="0.6" stroke-width="1.2"/><text x="202.0" y="113.0" font-size="11" fill="#5ad7ff" text-anchor="start" font-weight="700" fill-opacity="1.0">head 1</text><rect x="206.0" y="123.0" width="12.0" height="12.0" rx="0" fill="#5ad7ff" fill-opacity="0.45" stroke="#5ad7ff" stroke-opacity="0.85" stroke-width="1.1"/><rect x="218.0" y="123.0" width="12.0" height="12.0" rx="0" fill="#2a3739" fill-opacity="0.3" stroke="#2a3739" stroke-opacity="0.85" stroke-width="1.1"/><rect x="230.0" y="123.0" width="12.0" height="12.0" rx="0" fill="#2a3739" fill-opacity="0.3" stroke="#2a3739" stroke-opacity="0.85" stroke-width="1.1"/><rect x="242.0" y="123.0" width="12.0" height="12.0" rx="0" fill="#2a3739" fill-opacity="0.3" stroke="#2a3739" stroke-opacity="0.85" stroke-width="1.1"/><rect x="254.0" y="123.0" width="12.0" height="12.0" rx="0" fill="#2a3739" fill-opacity="0.3" stroke="#2a3739" stroke-opacity="0.85" stroke-width="1.1"/><rect x="206.0" y="135.0" width="12.0" height="12.0" rx="0" fill="#5ad7ff" fill-opacity="0.45" stroke="#5ad7ff" stroke-opacity="0.85" stroke-width="1.1"/><rect x="218.0" y="135.0" width="12.0" height="12.0" rx="0" fill="#5ad7ff" fill-opacity="0.45" stroke="#5ad7ff" stroke-opacity="0.85" stroke-width="1.1"/><rect x="230.0" y="135.0" width="12.0" height="12.0" rx="0" fill="#2a3739" fill-opacity="0.3" stroke="#2a3739" stroke-opacity="0.85" stroke-width="1.1"/><rect x="242.0" y="135.0" width="12.0" height="12.0" rx="0" fill="#2a3739" fill-opacity="0.3" stroke="#2a3739" stroke-opacity="0.85" stroke-width="1.1"/><rect x="254.0" y="135.0" width="12.0" height="12.0" rx="0" fill="#2a3739" fill-opacity="0.3" stroke="#2a3739" stroke-opacity="0.85" stroke-width="1.1"/><rect x="206.0" y="147.0" width="12.0" height="12.0" rx="0" fill="#5ad7ff" fill-opacity="0.45" stroke="#5ad7ff" stroke-opacity="0.85" stroke-width="1.1"/><rect x="218.0" y="147.0" width="12.0" height="12.0" rx="0" fill="#5ad7ff" fill-opacity="0.45" stroke="#5ad7ff" stroke-opacity="0.85" stroke-width="1.1"/><rect x="230.0" y="147.0" width="12.0" height="12.0" rx="0" fill="#5ad7ff" fill-opacity="0.45" stroke="#5ad7ff" stroke-opacity="0.85" stroke-width="1.1"/><rect x="242.0" y="147.0" width="12.0" height="12.0" rx="0" fill="#2a3739" fill-opacity="0.3" stroke="#2a3739" stroke-opacity="0.85" stroke-width="1.1"/><rect x="254.0" y="147.0" width="12.0" height="12.0" rx="0" fill="#2a3739" fill-opacity="0.3" stroke="#2a3739" stroke-opacity="0.85" stroke-width="1.1"/><rect x="206.0" y="159.0" width="12.0" height="12.0" rx="0" fill="#5ad7ff" fill-opacity="0.45" stroke="#5ad7ff" stroke-opacity="0.85" stroke-width="1.1"/><rect x="218.0" y="159.0" width="12.0" height="12.0" rx="0" fill="#5ad7ff" fill-opacity="0.45" stroke="#5ad7ff" stroke-opacity="0.85" stroke-width="1.1"/><rect x="230.0" y="159.0" width="12.0" height="12.0" rx="0" fill="#5ad7ff" fill-opacity="0.45" stroke="#5ad7ff" stroke-opacity="0.85" stroke-width="1.1"/><rect x="242.0" y="159.0" width="12.0" height="12.0" rx="0" fill="#5ad7ff" fill-opacity="0.45" stroke="#5ad7ff" stroke-opacity="0.85" stroke-width="1.1"/><rect x="254.0" y="159.0" width="12.0" height="12.0" rx="0" fill="#2a3739" fill-opacity="0.3" stroke="#2a3739" stroke-opacity="0.85" stroke-width="1.1"/><rect x="206.0" y="171.0" width="12.0" height="12.0" rx="0" fill="#5ad7ff" fill-opacity="0.45" stroke="#5ad7ff" stroke-opacity="0.85" stroke-width="1.1"/><rect x="218.0" y="171.0" width="12.0" height="12.0" rx="0" fill="#5ad7ff" fill-opacity="0.45" stroke="#5ad7ff" stroke-opacity="0.85" stroke-width="1.1"/><rect x="230.0" y="171.0" width="12.0" height="12.0" rx="0" fill="#5ad7ff" fill-opacity="0.45" stroke="#5ad7ff" stroke-opacity="0.85" stroke-width="1.1"/><rect x="242.0" y="171.0" width="12.0" height="12.0" rx="0" fill="#5ad7ff" fill-opacity="0.45" stroke="#5ad7ff" stroke-opacity="0.85" stroke-width="1.1"/><rect x="254.0" y="171.0" width="12.0" height="12.0" rx="0" fill="#5ad7ff" fill-opacity="0.45" stroke="#5ad7ff" stroke-opacity="0.85" stroke-width="1.1"/><text x="298.0" y="157.0" font-size="16" fill="#7f8e89" text-anchor="middle" font-weight="400" fill-opacity="1.0">→</text><rect x="340.0" y="127.0" width="18.0" height="18.0" rx="0" fill="#5ad7ff" fill-opacity="0.18" stroke="#5ad7ff" stroke-opacity="0.85" stroke-width="1.1"/><rect x="358.0" y="127.0" width="18.0" height="18.0" rx="0" fill="#5ad7ff" fill-opacity="0.18" stroke="#5ad7ff" stroke-opacity="0.85" stroke-width="1.1"/><rect x="376.0" y="127.0" width="18.0" height="18.0" rx="0" fill="#5ad7ff" fill-opacity="0.18" stroke="#5ad7ff" stroke-opacity="0.85" stroke-width="1.1"/><rect x="394.0" y="127.0" width="18.0" height="18.0" rx="0" fill="#5ad7ff" fill-opacity="0.18" stroke="#5ad7ff" stroke-opacity="0.85" stroke-width="1.1"/><rect x="412.0" y="127.0" width="18.0" height="18.0" rx="0" fill="#5ad7ff" fill-opacity="0.18" stroke="#5ad7ff" stroke-opacity="0.85" stroke-width="1.1"/><rect x="340.0" y="145.0" width="18.0" height="18.0" rx="0" fill="#5ad7ff" fill-opacity="0.32" stroke="#5ad7ff" stroke-opacity="0.85" stroke-width="1.1"/><rect x="358.0" y="145.0" width="18.0" height="18.0" rx="0" fill="#5ad7ff" fill-opacity="0.32" stroke="#5ad7ff" stroke-opacity="0.85" stroke-width="1.1"/><rect x="376.0" y="145.0" width="18.0" height="18.0" rx="0" fill="#5ad7ff" fill-opacity="0.32" stroke="#5ad7ff" stroke-opacity="0.85" stroke-width="1.1"/><rect x="394.0" y="145.0" width="18.0" height="18.0" rx="0" fill="#5ad7ff" fill-opacity="0.32" stroke="#5ad7ff" stroke-opacity="0.85" stroke-width="1.1"/><rect x="412.0" y="145.0" width="18.0" height="18.0" rx="0" fill="#5ad7ff" fill-opacity="0.32" stroke="#5ad7ff" stroke-opacity="0.85" stroke-width="1.1"/><text x="386.0" y="183.0" font-size="9" fill="#7f8e89" text-anchor="middle" font-weight="400" fill-opacity="1.0">softmax(QKᵀ)V</text><path d="M450,145.0 C490,145.0 510,219 556,219" fill="none" stroke="#5ad7ff" stroke-width="1.4" stroke-opacity="1.0" stroke-linecap="round" stroke-linejoin="round" marker-end="url(#a5ad7ff)"/><path d="M136,255 C170,255 150,260.0 184,260.0" fill="none" stroke="#1f9b5c" stroke-width="1.4" stroke-opacity="1.0" stroke-linecap="round" stroke-linejoin="round" marker-end="url(#a1f9b5c)"/><rect x="190.0" y="210.0" width="260.0" height="100.0" rx="8" fill="#121819" fill-opacity="1.0" stroke="#ff7edb" stroke-opacity="0.6" stroke-width="1.2"/><text x="202.0" y="228.0" font-size="11" fill="#ff7edb" text-anchor="start" font-weight="700" fill-opacity="1.0">head 2</text><rect x="206.0" y="238.0" width="12.0" height="12.0" rx="0" fill="#ff7edb" fill-opacity="0.45" stroke="#ff7edb" stroke-opacity="0.85" stroke-width="1.1"/><rect x="218.0" y="238.0" width="12.0" height="12.0" rx="0" fill="#2a3739" fill-opacity="0.3" stroke="#2a3739" stroke-opacity="0.85" stroke-width="1.1"/><rect x="230.0" y="238.0" width="12.0" height="12.0" rx="0" fill="#2a3739" fill-opacity="0.3" stroke="#2a3739" stroke-opacity="0.85" stroke-width="1.1"/><rect x="242.0" y="238.0" width="12.0" height="12.0" rx="0" fill="#2a3739" fill-opacity="0.3" stroke="#2a3739" stroke-opacity="0.85" stroke-width="1.1"/><rect x="254.0" y="238.0" width="12.0" height="12.0" rx="0" fill="#2a3739" fill-opacity="0.3" stroke="#2a3739" stroke-opacity="0.85" stroke-width="1.1"/><rect x="206.0" y="250.0" width="12.0" height="12.0" rx="0" fill="#ff7edb" fill-opacity="0.45" stroke="#ff7edb" stroke-opacity="0.85" stroke-width="1.1"/><rect x="218.0" y="250.0" width="12.0" height="12.0" rx="0" fill="#ff7edb" fill-opacity="0.45" stroke="#ff7edb" stroke-opacity="0.85" stroke-width="1.1"/><rect x="230.0" y="250.0" width="12.0" height="12.0" rx="0" fill="#2a3739" fill-opacity="0.3" stroke="#2a3739" stroke-opacity="0.85" stroke-width="1.1"/><rect x="242.0" y="250.0" width="12.0" height="12.0" rx="0" fill="#2a3739" fill-opacity="0.3" stroke="#2a3739" stroke-opacity="0.85" stroke-width="1.1"/><rect x="254.0" y="250.0" width="12.0" height="12.0" rx="0" fill="#2a3739" fill-opacity="0.3" stroke="#2a3739" stroke-opacity="0.85" stroke-width="1.1"/><rect x="206.0" y="262.0" width="12.0" height="12.0" rx="0" fill="#ff7edb" fill-opacity="0.45" stroke="#ff7edb" stroke-opacity="0.85" stroke-width="1.1"/><rect x="218.0" y="262.0" width="12.0" height="12.0" rx="0" fill="#ff7edb" fill-opacity="0.45" stroke="#ff7edb" stroke-opacity="0.85" stroke-width="1.1"/><rect x="230.0" y="262.0" width="12.0" height="12.0" rx="0" fill="#ff7edb" fill-opacity="0.45" stroke="#ff7edb" stroke-opacity="0.85" stroke-width="1.1"/><rect x="242.0" y="262.0" width="12.0" height="12.0" rx="0" fill="#2a3739" fill-opacity="0.3" stroke="#2a3739" stroke-opacity="0.85" stroke-width="1.1"/><rect x="254.0" y="262.0" width="12.0" height="12.0" rx="0" fill="#2a3739" fill-opacity="0.3" stroke="#2a3739" stroke-opacity="0.85" stroke-width="1.1"/><rect x="206.0" y="274.0" width="12.0" height="12.0" rx="0" fill="#ff7edb" fill-opacity="0.45" stroke="#ff7edb" stroke-opacity="0.85" stroke-width="1.1"/><rect x="218.0" y="274.0" width="12.0" height="12.0" rx="0" fill="#ff7edb" fill-opacity="0.45" stroke="#ff7edb" stroke-opacity="0.85" stroke-width="1.1"/><rect x="230.0" y="274.0" width="12.0" height="12.0" rx="0" fill="#ff7edb" fill-opacity="0.45" stroke="#ff7edb" stroke-opacity="0.85" stroke-width="1.1"/><rect x="242.0" y="274.0" width="12.0" height="12.0" rx="0" fill="#ff7edb" fill-opacity="0.45" stroke="#ff7edb" stroke-opacity="0.85" stroke-width="1.1"/><rect x="254.0" y="274.0" width="12.0" height="12.0" rx="0" fill="#2a3739" fill-opacity="0.3" stroke="#2a3739" stroke-opacity="0.85" stroke-width="1.1"/><rect x="206.0" y="286.0" width="12.0" height="12.0" rx="0" fill="#ff7edb" fill-opacity="0.45" stroke="#ff7edb" stroke-opacity="0.85" stroke-width="1.1"/><rect x="218.0" y="286.0" width="12.0" height="12.0" rx="0" fill="#ff7edb" fill-opacity="0.45" stroke="#ff7edb" stroke-opacity="0.85" stroke-width="1.1"/><rect x="230.0" y="286.0" width="12.0" height="12.0" rx="0" fill="#ff7edb" fill-opacity="0.45" stroke="#ff7edb" stroke-opacity="0.85" stroke-width="1.1"/><rect x="242.0" y="286.0" width="12.0" height="12.0" rx="0" fill="#ff7edb" fill-opacity="0.45" stroke="#ff7edb" stroke-opacity="0.85" stroke-width="1.1"/><rect x="254.0" y="286.0" width="12.0" height="12.0" rx="0" fill="#ff7edb" fill-opacity="0.45" stroke="#ff7edb" stroke-opacity="0.85" stroke-width="1.1"/><text x="298.0" y="272.0" font-size="16" fill="#7f8e89" text-anchor="middle" font-weight="400" fill-opacity="1.0">→</text><rect x="340.0" y="242.0" width="18.0" height="18.0" rx="0" fill="#ff7edb" fill-opacity="0.18" stroke="#ff7edb" stroke-opacity="0.85" stroke-width="1.1"/><rect x="358.0" y="242.0" width="18.0" height="18.0" rx="0" fill="#ff7edb" fill-opacity="0.18" stroke="#ff7edb" stroke-opacity="0.85" stroke-width="1.1"/><rect x="376.0" y="242.0" width="18.0" height="18.0" rx="0" fill="#ff7edb" fill-opacity="0.18" stroke="#ff7edb" stroke-opacity="0.85" stroke-width="1.1"/><rect x="394.0" y="242.0" width="18.0" height="18.0" rx="0" fill="#ff7edb" fill-opacity="0.18" stroke="#ff7edb" stroke-opacity="0.85" stroke-width="1.1"/><rect x="412.0" y="242.0" width="18.0" height="18.0" rx="0" fill="#ff7edb" fill-opacity="0.18" stroke="#ff7edb" stroke-opacity="0.85" stroke-width="1.1"/><rect x="340.0" y="260.0" width="18.0" height="18.0" rx="0" fill="#ff7edb" fill-opacity="0.32" stroke="#ff7edb" stroke-opacity="0.85" stroke-width="1.1"/><rect x="358.0" y="260.0" width="18.0" height="18.0" rx="0" fill="#ff7edb" fill-opacity="0.32" stroke="#ff7edb" stroke-opacity="0.85" stroke-width="1.1"/><rect x="376.0" y="260.0" width="18.0" height="18.0" rx="0" fill="#ff7edb" fill-opacity="0.32" stroke="#ff7edb" stroke-opacity="0.85" stroke-width="1.1"/><rect x="394.0" y="260.0" width="18.0" height="18.0" rx="0" fill="#ff7edb" fill-opacity="0.32" stroke="#ff7edb" stroke-opacity="0.85" stroke-width="1.1"/><rect x="412.0" y="260.0" width="18.0" height="18.0" rx="0" fill="#ff7edb" fill-opacity="0.32" stroke="#ff7edb" stroke-opacity="0.85" stroke-width="1.1"/><text x="386.0" y="298.0" font-size="9" fill="#7f8e89" text-anchor="middle" font-weight="400" fill-opacity="1.0">softmax(QKᵀ)V</text><path d="M450,260.0 C490,260.0 510,255 556,255" fill="none" stroke="#ff7edb" stroke-width="1.4" stroke-opacity="1.0" stroke-linecap="round" stroke-linejoin="round" marker-end="url(#aff7edb)"/><path d="M136,255 C170,255 150,375.0 184,375.0" fill="none" stroke="#1f9b5c" stroke-width="1.4" stroke-opacity="1.0" stroke-linecap="round" stroke-linejoin="round" marker-end="url(#a1f9b5c)"/><rect x="190.0" y="325.0" width="260.0" height="100.0" rx="8" fill="#121819" fill-opacity="1.0" stroke="#f5c542" stroke-opacity="0.6" stroke-width="1.2"/><text x="202.0" y="343.0" font-size="11" fill="#f5c542" text-anchor="start" font-weight="700" fill-opacity="1.0">head 3</text><rect x="206.0" y="353.0" width="12.0" height="12.0" rx="0" fill="#f5c542" fill-opacity="0.45" stroke="#f5c542" stroke-opacity="0.85" stroke-width="1.1"/><rect x="218.0" y="353.0" width="12.0" height="12.0" rx="0" fill="#2a3739" fill-opacity="0.3" stroke="#2a3739" stroke-opacity="0.85" stroke-width="1.1"/><rect x="230.0" y="353.0" width="12.0" height="12.0" rx="0" fill="#2a3739" fill-opacity="0.3" stroke="#2a3739" stroke-opacity="0.85" stroke-width="1.1"/><rect x="242.0" y="353.0" width="12.0" height="12.0" rx="0" fill="#2a3739" fill-opacity="0.3" stroke="#2a3739" stroke-opacity="0.85" stroke-width="1.1"/><rect x="254.0" y="353.0" width="12.0" height="12.0" rx="0" fill="#2a3739" fill-opacity="0.3" stroke="#2a3739" stroke-opacity="0.85" stroke-width="1.1"/><rect x="206.0" y="365.0" width="12.0" height="12.0" rx="0" fill="#f5c542" fill-opacity="0.45" stroke="#f5c542" stroke-opacity="0.85" stroke-width="1.1"/><rect x="218.0" y="365.0" width="12.0" height="12.0" rx="0" fill="#f5c542" fill-opacity="0.45" stroke="#f5c542" stroke-opacity="0.85" stroke-width="1.1"/><rect x="230.0" y="365.0" width="12.0" height="12.0" rx="0" fill="#2a3739" fill-opacity="0.3" stroke="#2a3739" stroke-opacity="0.85" stroke-width="1.1"/><rect x="242.0" y="365.0" width="12.0" height="12.0" rx="0" fill="#2a3739" fill-opacity="0.3" stroke="#2a3739" stroke-opacity="0.85" stroke-width="1.1"/><rect x="254.0" y="365.0" width="12.0" height="12.0" rx="0" fill="#2a3739" fill-opacity="0.3" stroke="#2a3739" stroke-opacity="0.85" stroke-width="1.1"/><rect x="206.0" y="377.0" width="12.0" height="12.0" rx="0" fill="#f5c542" fill-opacity="0.45" stroke="#f5c542" stroke-opacity="0.85" stroke-width="1.1"/><rect x="218.0" y="377.0" width="12.0" height="12.0" rx="0" fill="#f5c542" fill-opacity="0.45" stroke="#f5c542" stroke-opacity="0.85" stroke-width="1.1"/><rect x="230.0" y="377.0" width="12.0" height="12.0" rx="0" fill="#f5c542" fill-opacity="0.45" stroke="#f5c542" stroke-opacity="0.85" stroke-width="1.1"/><rect x="242.0" y="377.0" width="12.0" height="12.0" rx="0" fill="#2a3739" fill-opacity="0.3" stroke="#2a3739" stroke-opacity="0.85" stroke-width="1.1"/><rect x="254.0" y="377.0" width="12.0" height="12.0" rx="0" fill="#2a3739" fill-opacity="0.3" stroke="#2a3739" stroke-opacity="0.85" stroke-width="1.1"/><rect x="206.0" y="389.0" width="12.0" height="12.0" rx="0" fill="#f5c542" fill-opacity="0.45" stroke="#f5c542" stroke-opacity="0.85" stroke-width="1.1"/><rect x="218.0" y="389.0" width="12.0" height="12.0" rx="0" fill="#f5c542" fill-opacity="0.45" stroke="#f5c542" stroke-opacity="0.85" stroke-width="1.1"/><rect x="230.0" y="389.0" width="12.0" height="12.0" rx="0" fill="#f5c542" fill-opacity="0.45" stroke="#f5c542" stroke-opacity="0.85" stroke-width="1.1"/><rect x="242.0" y="389.0" width="12.0" height="12.0" rx="0" fill="#f5c542" fill-opacity="0.45" stroke="#f5c542" stroke-opacity="0.85" stroke-width="1.1"/><rect x="254.0" y="389.0" width="12.0" height="12.0" rx="0" fill="#2a3739" fill-opacity="0.3" stroke="#2a3739" stroke-opacity="0.85" stroke-width="1.1"/><rect x="206.0" y="401.0" width="12.0" height="12.0" rx="0" fill="#f5c542" fill-opacity="0.45" stroke="#f5c542" stroke-opacity="0.85" stroke-width="1.1"/><rect x="218.0" y="401.0" width="12.0" height="12.0" rx="0" fill="#f5c542" fill-opacity="0.45" stroke="#f5c542" stroke-opacity="0.85" stroke-width="1.1"/><rect x="230.0" y="401.0" width="12.0" height="12.0" rx="0" fill="#f5c542" fill-opacity="0.45" stroke="#f5c542" stroke-opacity="0.85" stroke-width="1.1"/><rect x="242.0" y="401.0" width="12.0" height="12.0" rx="0" fill="#f5c542" fill-opacity="0.45" stroke="#f5c542" stroke-opacity="0.85" stroke-width="1.1"/><rect x="254.0" y="401.0" width="12.0" height="12.0" rx="0" fill="#f5c542" fill-opacity="0.45" stroke="#f5c542" stroke-opacity="0.85" stroke-width="1.1"/><text x="298.0" y="387.0" font-size="16" fill="#7f8e89" text-anchor="middle" font-weight="400" fill-opacity="1.0">→</text><rect x="340.0" y="357.0" width="18.0" height="18.0" rx="0" fill="#f5c542" fill-opacity="0.18" stroke="#f5c542" stroke-opacity="0.85" stroke-width="1.1"/><rect x="358.0" y="357.0" width="18.0" height="18.0" rx="0" fill="#f5c542" fill-opacity="0.18" stroke="#f5c542" stroke-opacity="0.85" stroke-width="1.1"/><rect x="376.0" y="357.0" width="18.0" height="18.0" rx="0" fill="#f5c542" fill-opacity="0.18" stroke="#f5c542" stroke-opacity="0.85" stroke-width="1.1"/><rect x="394.0" y="357.0" width="18.0" height="18.0" rx="0" fill="#f5c542" fill-opacity="0.18" stroke="#f5c542" stroke-opacity="0.85" stroke-width="1.1"/><rect x="412.0" y="357.0" width="18.0" height="18.0" rx="0" fill="#f5c542" fill-opacity="0.18" stroke="#f5c542" stroke-opacity="0.85" stroke-width="1.1"/><rect x="340.0" y="375.0" width="18.0" height="18.0" rx="0" fill="#f5c542" fill-opacity="0.32" stroke="#f5c542" stroke-opacity="0.85" stroke-width="1.1"/><rect x="358.0" y="375.0" width="18.0" height="18.0" rx="0" fill="#f5c542" fill-opacity="0.32" stroke="#f5c542" stroke-opacity="0.85" stroke-width="1.1"/><rect x="376.0" y="375.0" width="18.0" height="18.0" rx="0" fill="#f5c542" fill-opacity="0.32" stroke="#f5c542" stroke-opacity="0.85" stroke-width="1.1"/><rect x="394.0" y="375.0" width="18.0" height="18.0" rx="0" fill="#f5c542" fill-opacity="0.32" stroke="#f5c542" stroke-opacity="0.85" stroke-width="1.1"/><rect x="412.0" y="375.0" width="18.0" height="18.0" rx="0" fill="#f5c542" fill-opacity="0.32" stroke="#f5c542" stroke-opacity="0.85" stroke-width="1.1"/><text x="386.0" y="413.0" font-size="9" fill="#7f8e89" text-anchor="middle" font-weight="400" fill-opacity="1.0">softmax(QKᵀ)V</text><path d="M450,375.0 C490,375.0 510,291 556,291" fill="none" stroke="#f5c542" stroke-width="1.4" stroke-opacity="1.0" stroke-linecap="round" stroke-linejoin="round" marker-end="url(#af5c542)"/><rect x="560.0" y="201.0" width="18.0" height="18.0" rx="0" fill="#5ad7ff" fill-opacity="0.18" stroke="#5ad7ff" stroke-opacity="0.85" stroke-width="1.1"/><rect x="578.0" y="201.0" width="18.0" height="18.0" rx="0" fill="#5ad7ff" fill-opacity="0.18" stroke="#5ad7ff" stroke-opacity="0.85" stroke-width="1.1"/><rect x="596.0" y="201.0" width="18.0" height="18.0" rx="0" fill="#5ad7ff" fill-opacity="0.18" stroke="#5ad7ff" stroke-opacity="0.85" stroke-width="1.1"/><rect x="614.0" y="201.0" width="18.0" height="18.0" rx="0" fill="#5ad7ff" fill-opacity="0.18" stroke="#5ad7ff" stroke-opacity="0.85" stroke-width="1.1"/><rect x="632.0" y="201.0" width="18.0" height="18.0" rx="0" fill="#5ad7ff" fill-opacity="0.18" stroke="#5ad7ff" stroke-opacity="0.85" stroke-width="1.1"/><rect x="560.0" y="219.0" width="18.0" height="18.0" rx="0" fill="#5ad7ff" fill-opacity="0.32" stroke="#5ad7ff" stroke-opacity="0.85" stroke-width="1.1"/><rect x="578.0" y="219.0" width="18.0" height="18.0" rx="0" fill="#5ad7ff" fill-opacity="0.32" stroke="#5ad7ff" stroke-opacity="0.85" stroke-width="1.1"/><rect x="596.0" y="219.0" width="18.0" height="18.0" rx="0" fill="#5ad7ff" fill-opacity="0.32" stroke="#5ad7ff" stroke-opacity="0.85" stroke-width="1.1"/><rect x="614.0" y="219.0" width="18.0" height="18.0" rx="0" fill="#5ad7ff" fill-opacity="0.32" stroke="#5ad7ff" stroke-opacity="0.85" stroke-width="1.1"/><rect x="632.0" y="219.0" width="18.0" height="18.0" rx="0" fill="#5ad7ff" fill-opacity="0.32" stroke="#5ad7ff" stroke-opacity="0.85" stroke-width="1.1"/><rect x="560.0" y="237.0" width="18.0" height="18.0" rx="0" fill="#ff7edb" fill-opacity="0.18" stroke="#ff7edb" stroke-opacity="0.85" stroke-width="1.1"/><rect x="578.0" y="237.0" width="18.0" height="18.0" rx="0" fill="#ff7edb" fill-opacity="0.18" stroke="#ff7edb" stroke-opacity="0.85" stroke-width="1.1"/><rect x="596.0" y="237.0" width="18.0" height="18.0" rx="0" fill="#ff7edb" fill-opacity="0.18" stroke="#ff7edb" stroke-opacity="0.85" stroke-width="1.1"/><rect x="614.0" y="237.0" width="18.0" height="18.0" rx="0" fill="#ff7edb" fill-opacity="0.18" stroke="#ff7edb" stroke-opacity="0.85" stroke-width="1.1"/><rect x="632.0" y="237.0" width="18.0" height="18.0" rx="0" fill="#ff7edb" fill-opacity="0.18" stroke="#ff7edb" stroke-opacity="0.85" stroke-width="1.1"/><rect x="560.0" y="255.0" width="18.0" height="18.0" rx="0" fill="#ff7edb" fill-opacity="0.32" stroke="#ff7edb" stroke-opacity="0.85" stroke-width="1.1"/><rect x="578.0" y="255.0" width="18.0" height="18.0" rx="0" fill="#ff7edb" fill-opacity="0.32" stroke="#ff7edb" stroke-opacity="0.85" stroke-width="1.1"/><rect x="596.0" y="255.0" width="18.0" height="18.0" rx="0" fill="#ff7edb" fill-opacity="0.32" stroke="#ff7edb" stroke-opacity="0.85" stroke-width="1.1"/><rect x="614.0" y="255.0" width="18.0" height="18.0" rx="0" fill="#ff7edb" fill-opacity="0.32" stroke="#ff7edb" stroke-opacity="0.85" stroke-width="1.1"/><rect x="632.0" y="255.0" width="18.0" height="18.0" rx="0" fill="#ff7edb" fill-opacity="0.32" stroke="#ff7edb" stroke-opacity="0.85" stroke-width="1.1"/><rect x="560.0" y="273.0" width="18.0" height="18.0" rx="0" fill="#f5c542" fill-opacity="0.18" stroke="#f5c542" stroke-opacity="0.85" stroke-width="1.1"/><rect x="578.0" y="273.0" width="18.0" height="18.0" rx="0" fill="#f5c542" fill-opacity="0.18" stroke="#f5c542" stroke-opacity="0.85" stroke-width="1.1"/><rect x="596.0" y="273.0" width="18.0" height="18.0" rx="0" fill="#f5c542" fill-opacity="0.18" stroke="#f5c542" stroke-opacity="0.85" stroke-width="1.1"/><rect x="614.0" y="273.0" width="18.0" height="18.0" rx="0" fill="#f5c542" fill-opacity="0.18" stroke="#f5c542" stroke-opacity="0.85" stroke-width="1.1"/><rect x="632.0" y="273.0" width="18.0" height="18.0" rx="0" fill="#f5c542" fill-opacity="0.18" stroke="#f5c542" stroke-opacity="0.85" stroke-width="1.1"/><rect x="560.0" y="291.0" width="18.0" height="18.0" rx="0" fill="#f5c542" fill-opacity="0.32" stroke="#f5c542" stroke-opacity="0.85" stroke-width="1.1"/><rect x="578.0" y="291.0" width="18.0" height="18.0" rx="0" fill="#f5c542" fill-opacity="0.32" stroke="#f5c542" stroke-opacity="0.85" stroke-width="1.1"/><rect x="596.0" y="291.0" width="18.0" height="18.0" rx="0" fill="#f5c542" fill-opacity="0.32" stroke="#f5c542" stroke-opacity="0.85" stroke-width="1.1"/><rect x="614.0" y="291.0" width="18.0" height="18.0" rx="0" fill="#f5c542" fill-opacity="0.32" stroke="#f5c542" stroke-opacity="0.85" stroke-width="1.1"/><rect x="632.0" y="291.0" width="18.0" height="18.0" rx="0" fill="#f5c542" fill-opacity="0.32" stroke="#f5c542" stroke-opacity="0.85" stroke-width="1.1"/><text x="605.0" y="190.0" font-size="14" fill="#d3ddd8" text-anchor="middle" font-weight="700" fill-opacity="1.0" font-style="italic">concat</text><text x="605.0" y="330.0" font-size="11" fill="#7f8e89" text-anchor="middle" font-weight="400" fill-opacity="1.0">(T × n_heads·h)</text><path d="M680.0,201.0 L780.0,228.0 L780.0,282.0 L680.0,309.0 Z" fill="#121819" stroke="#1f9b5c" stroke-width="1.4"/><text x="730.0" y="253.0" font-size="13" fill="#3dff9a" text-anchor="middle" font-weight="700" fill-opacity="1.0">Linear</text><text x="730.0" y="269.0" font-size="10" fill="#7f8e89" text-anchor="middle" font-weight="400" fill-opacity="1.0">proj</text><path d="M654.0,255.0 L676.0,255.0" fill="none" stroke="#1f9b5c" stroke-width="1.4" stroke-opacity="1.0" stroke-linecap="round" stroke-linejoin="round" marker-end="url(#a1f9b5c)"/><rect x="810.0" y="228.0" width="18.0" height="18.0" rx="0" fill="#3dff9a" fill-opacity="0.15" stroke="#3dff9a" stroke-opacity="0.85" stroke-width="1.1"/><rect x="828.0" y="228.0" width="18.0" height="18.0" rx="0" fill="#3dff9a" fill-opacity="0.15" stroke="#3dff9a" stroke-opacity="0.85" stroke-width="1.1"/><rect x="846.0" y="228.0" width="18.0" height="18.0" rx="0" fill="#3dff9a" fill-opacity="0.15" stroke="#3dff9a" stroke-opacity="0.85" stroke-width="1.1"/><rect x="864.0" y="228.0" width="18.0" height="18.0" rx="0" fill="#3dff9a" fill-opacity="0.15" stroke="#3dff9a" stroke-opacity="0.85" stroke-width="1.1"/><rect x="882.0" y="228.0" width="18.0" height="18.0" rx="0" fill="#3dff9a" fill-opacity="0.15" stroke="#3dff9a" stroke-opacity="0.85" stroke-width="1.1"/><rect x="810.0" y="246.0" width="18.0" height="18.0" rx="0" fill="#3dff9a" fill-opacity="0.27" stroke="#3dff9a" stroke-opacity="0.85" stroke-width="1.1"/><rect x="828.0" y="246.0" width="18.0" height="18.0" rx="0" fill="#3dff9a" fill-opacity="0.27" stroke="#3dff9a" stroke-opacity="0.85" stroke-width="1.1"/><rect x="846.0" y="246.0" width="18.0" height="18.0" rx="0" fill="#3dff9a" fill-opacity="0.27" stroke="#3dff9a" stroke-opacity="0.85" stroke-width="1.1"/><rect x="864.0" y="246.0" width="18.0" height="18.0" rx="0" fill="#3dff9a" fill-opacity="0.27" stroke="#3dff9a" stroke-opacity="0.85" stroke-width="1.1"/><rect x="882.0" y="246.0" width="18.0" height="18.0" rx="0" fill="#3dff9a" fill-opacity="0.27" stroke="#3dff9a" stroke-opacity="0.85" stroke-width="1.1"/><rect x="810.0" y="264.0" width="18.0" height="18.0" rx="0" fill="#3dff9a" fill-opacity="0.39" stroke="#3dff9a" stroke-opacity="0.85" stroke-width="1.1"/><rect x="828.0" y="264.0" width="18.0" height="18.0" rx="0" fill="#3dff9a" fill-opacity="0.39" stroke="#3dff9a" stroke-opacity="0.85" stroke-width="1.1"/><rect x="846.0" y="264.0" width="18.0" height="18.0" rx="0" fill="#3dff9a" fill-opacity="0.39" stroke="#3dff9a" stroke-opacity="0.85" stroke-width="1.1"/><rect x="864.0" y="264.0" width="18.0" height="18.0" rx="0" fill="#3dff9a" fill-opacity="0.39" stroke="#3dff9a" stroke-opacity="0.85" stroke-width="1.1"/><rect x="882.0" y="264.0" width="18.0" height="18.0" rx="0" fill="#3dff9a" fill-opacity="0.39" stroke="#3dff9a" stroke-opacity="0.85" stroke-width="1.1"/><path d="M784.0,255.0 L804.0,255.0" fill="none" stroke="#3dff9a" stroke-width="1.4" stroke-opacity="1.0" stroke-linecap="round" stroke-linejoin="round" marker-end="url(#a3dff9a)"/><text x="855.0" y="215.0" font-size="14" fill="#3dff9a" text-anchor="middle" font-weight="700" fill-opacity="1.0" font-style="italic">out</text><text x="855.0" y="303.0" font-size="11" fill="#7f8e89" text-anchor="middle" font-weight="400" fill-opacity="1.0">(T × C)</text><text x="500.0" y="455.0" font-size="12" fill="#7f8e89" text-anchor="middle" font-weight="400" fill-opacity="1.0">several heads attend in parallel, each noticing different patterns — then one projection fuses them</text></svg>
