<?xml version="1.0" encoding="UTF-8" standalone="no"?>
<!DOCTYPE svg PUBLIC "-//W3C//DTD SVG 1.1//EN"
 "http://www.w3.org/Graphics/SVG/1.1/DTD/svg11.dtd">
<!-- Generated by graphviz version 3.0.0 (20220226.1711)
 -->
<!-- Pages: 1 -->
<svg width="1442pt" height="210pt"
 viewBox="0.00 0.00 1442.00 210.00" xmlns="http://www.w3.org/2000/svg" xmlns:xlink="http://www.w3.org/1999/xlink">
<g id="graph0" class="graph" transform="scale(1 1) rotate(0) translate(4 206)">
<polygon fill="white" stroke="transparent" points="-4,4 -4,-206 1438,-206 1438,4 -4,4"/>
<!-- 140688824767568 -->
<g id="node1" class="node">
<title>140688824767568</title>
<polygon fill="none" stroke="black" points="990,-109.5 990,-145.5 1149,-145.5 1149,-109.5 990,-109.5"/>
<text text-anchor="middle" x="1001.5" y="-123.8" font-family="Times,serif" font-size="14.00">n</text>
<polyline fill="none" stroke="black" points="1013,-109.5 1013,-145.5 "/>
<text text-anchor="middle" x="1047" y="-123.8" font-family="Times,serif" font-size="14.00">0.881400</text>
<polyline fill="none" stroke="black" points="1081,-109.5 1081,-145.5 "/>
<text text-anchor="middle" x="1115" y="-123.8" font-family="Times,serif" font-size="14.00">0.499981</text>
</g>
<!-- 140688824770256tanh -->
<g id="node8" class="node">
<title>140688824770256tanh</title>
<ellipse fill="none" stroke="black" cx="1212" cy="-127.5" rx="27" ry="18"/>
<text text-anchor="middle" x="1212" y="-123.8" font-family="Times,serif" font-size="14.00">tanh</text>
</g>
<!-- 140688824767568&#45;&gt;140688824770256tanh -->
<g id="edge8" class="edge">
<title>140688824767568&#45;&gt;140688824770256tanh</title>
<path fill="none" stroke="black" d="M1149.37,-127.5C1158.15,-127.5 1166.74,-127.5 1174.59,-127.5"/>
<polygon fill="black" stroke="black" points="1174.78,-131 1184.78,-127.5 1174.78,-124 1174.78,-131"/>
</g>
<!-- 140688824767568+ -->
<g id="node2" class="node">
<title>140688824767568+</title>
<ellipse fill="none" stroke="black" cx="927" cy="-127.5" rx="27" ry="18"/>
<text text-anchor="middle" x="927" y="-123.8" font-family="Times,serif" font-size="14.00">+</text>
</g>
<!-- 140688824767568+&#45;&gt;140688824767568 -->
<g id="edge1" class="edge">
<title>140688824767568+&#45;&gt;140688824767568</title>
<path fill="none" stroke="black" d="M954.1,-127.5C961.67,-127.5 970.4,-127.5 979.59,-127.5"/>
<polygon fill="black" stroke="black" points="979.71,-131 989.71,-127.5 979.71,-124 979.71,-131"/>
</g>
<!-- 140688824930384 -->
<g id="node3" class="node">
<title>140688824930384</title>
<polygon fill="none" stroke="black" points="0,-55.5 0,-91.5 173,-91.5 173,-55.5 0,-55.5"/>
<text text-anchor="middle" x="16.5" y="-69.8" font-family="Times,serif" font-size="14.00">w1</text>
<polyline fill="none" stroke="black" points="33,-55.5 33,-91.5 "/>
<text text-anchor="middle" x="69" y="-69.8" font-family="Times,serif" font-size="14.00">&#45;3.000000</text>
<polyline fill="none" stroke="black" points="105,-55.5 105,-91.5 "/>
<text text-anchor="middle" x="139" y="-69.8" font-family="Times,serif" font-size="14.00">0.999963</text>
</g>
<!-- 140688824766672* -->
<g id="node11" class="node">
<title>140688824766672*</title>
<ellipse fill="none" stroke="black" cx="236" cy="-73.5" rx="27" ry="18"/>
<text text-anchor="middle" x="236" y="-69.8" font-family="Times,serif" font-size="14.00">*</text>
</g>
<!-- 140688824930384&#45;&gt;140688824766672* -->
<g id="edge9" class="edge">
<title>140688824930384&#45;&gt;140688824766672*</title>
<path fill="none" stroke="black" d="M173.3,-73.5C182.19,-73.5 190.84,-73.5 198.71,-73.5"/>
<polygon fill="black" stroke="black" points="198.92,-77 208.92,-73.5 198.92,-70 198.92,-77"/>
</g>
<!-- 140688824931408 -->
<g id="node4" class="node">
<title>140688824931408</title>
<polygon fill="none" stroke="black" points="661.5,-137.5 661.5,-173.5 820.5,-173.5 820.5,-137.5 661.5,-137.5"/>
<text text-anchor="middle" x="673" y="-151.8" font-family="Times,serif" font-size="14.00">b</text>
<polyline fill="none" stroke="black" points="684.5,-137.5 684.5,-173.5 "/>
<text text-anchor="middle" x="718.5" y="-151.8" font-family="Times,serif" font-size="14.00">6.881400</text>
<polyline fill="none" stroke="black" points="752.5,-137.5 752.5,-173.5 "/>
<text text-anchor="middle" x="786.5" y="-151.8" font-family="Times,serif" font-size="14.00">0.499981</text>
</g>
<!-- 140688824931408&#45;&gt;140688824767568+ -->
<g id="edge7" class="edge">
<title>140688824931408&#45;&gt;140688824767568+</title>
<path fill="none" stroke="black" d="M820.57,-143.54C844.91,-139.84 870.53,-135.94 890.42,-132.91"/>
<polygon fill="black" stroke="black" points="891.19,-136.34 900.55,-131.37 890.14,-129.42 891.19,-136.34"/>
</g>
<!-- 140688824767632 -->
<g id="node5" class="node">
<title>140688824767632</title>
<polygon fill="none" stroke="black" points="301,-110.5 301,-146.5 490,-146.5 490,-110.5 301,-110.5"/>
<text text-anchor="middle" x="327.5" y="-124.8" font-family="Times,serif" font-size="14.00">w2*x2</text>
<polyline fill="none" stroke="black" points="354,-110.5 354,-146.5 "/>
<text text-anchor="middle" x="388" y="-124.8" font-family="Times,serif" font-size="14.00">0.000000</text>
<polyline fill="none" stroke="black" points="422,-110.5 422,-146.5 "/>
<text text-anchor="middle" x="456" y="-124.8" font-family="Times,serif" font-size="14.00">0.499981</text>
</g>
<!-- 140688824767760+ -->
<g id="node13" class="node">
<title>140688824767760+</title>
<ellipse fill="none" stroke="black" cx="555" cy="-100.5" rx="27" ry="18"/>
<text text-anchor="middle" x="555" y="-96.8" font-family="Times,serif" font-size="14.00">+</text>
</g>
<!-- 140688824767632&#45;&gt;140688824767760+ -->
<g id="edge12" class="edge">
<title>140688824767632&#45;&gt;140688824767760+</title>
<path fill="none" stroke="black" d="M490.39,-111.81C500.42,-110.03 510.1,-108.3 518.76,-106.77"/>
<polygon fill="black" stroke="black" points="519.53,-110.18 528.77,-104.99 518.31,-103.29 519.53,-110.18"/>
</g>
<!-- 140688824767632* -->
<g id="node6" class="node">
<title>140688824767632*</title>
<ellipse fill="none" stroke="black" cx="236" cy="-128.5" rx="27" ry="18"/>
<text text-anchor="middle" x="236" y="-124.8" font-family="Times,serif" font-size="14.00">*</text>
</g>
<!-- 140688824767632*&#45;&gt;140688824767632 -->
<g id="edge2" class="edge">
<title>140688824767632*&#45;&gt;140688824767632</title>
<path fill="none" stroke="black" d="M263.01,-128.5C271.07,-128.5 280.49,-128.5 290.53,-128.5"/>
<polygon fill="black" stroke="black" points="290.74,-132 300.74,-128.5 290.74,-125 290.74,-132"/>
</g>
<!-- 140688824770256 -->
<g id="node7" class="node">
<title>140688824770256</title>
<polygon fill="none" stroke="black" points="1275,-109.5 1275,-145.5 1434,-145.5 1434,-109.5 1275,-109.5"/>
<text text-anchor="middle" x="1286.5" y="-123.8" font-family="Times,serif" font-size="14.00">o</text>
<polyline fill="none" stroke="black" points="1298,-109.5 1298,-145.5 "/>
<text text-anchor="middle" x="1332" y="-123.8" font-family="Times,serif" font-size="14.00">0.707120</text>
<polyline fill="none" stroke="black" points="1366,-109.5 1366,-145.5 "/>
<text text-anchor="middle" x="1400" y="-123.8" font-family="Times,serif" font-size="14.00">1.000000</text>
</g>
<!-- 140688824770256tanh&#45;&gt;140688824770256 -->
<g id="edge3" class="edge">
<title>140688824770256tanh&#45;&gt;140688824770256</title>
<path fill="none" stroke="black" d="M1239.1,-127.5C1246.67,-127.5 1255.4,-127.5 1264.59,-127.5"/>
<polygon fill="black" stroke="black" points="1264.71,-131 1274.71,-127.5 1264.71,-124 1264.71,-131"/>
</g>
<!-- 140688824933584 -->
<g id="node9" class="node">
<title>140688824933584</title>
<polygon fill="none" stroke="black" points="2,-165.5 2,-201.5 171,-201.5 171,-165.5 2,-165.5"/>
<text text-anchor="middle" x="18.5" y="-179.8" font-family="Times,serif" font-size="14.00">w2</text>
<polyline fill="none" stroke="black" points="35,-165.5 35,-201.5 "/>
<text text-anchor="middle" x="69" y="-179.8" font-family="Times,serif" font-size="14.00">1.000000</text>
<polyline fill="none" stroke="black" points="103,-165.5 103,-201.5 "/>
<text text-anchor="middle" x="137" y="-179.8" font-family="Times,serif" font-size="14.00">0.000000</text>
</g>
<!-- 140688824933584&#45;&gt;140688824767632* -->
<g id="edge13" class="edge">
<title>140688824933584&#45;&gt;140688824767632*</title>
<path fill="none" stroke="black" d="M148.07,-165.36C156.5,-162.55 165,-159.56 173,-156.5 183.45,-152.51 194.66,-147.63 204.63,-143.08"/>
<polygon fill="black" stroke="black" points="206.15,-146.24 213.74,-138.85 203.2,-139.88 206.15,-146.24"/>
</g>
<!-- 140688824766672 -->
<g id="node10" class="node">
<title>140688824766672</title>
<polygon fill="none" stroke="black" points="299,-55.5 299,-91.5 492,-91.5 492,-55.5 299,-55.5"/>
<text text-anchor="middle" x="325.5" y="-69.8" font-family="Times,serif" font-size="14.00">w1*x1</text>
<polyline fill="none" stroke="black" points="352,-55.5 352,-91.5 "/>
<text text-anchor="middle" x="388" y="-69.8" font-family="Times,serif" font-size="14.00">&#45;6.000000</text>
<polyline fill="none" stroke="black" points="424,-55.5 424,-91.5 "/>
<text text-anchor="middle" x="458" y="-69.8" font-family="Times,serif" font-size="14.00">0.499981</text>
</g>
<!-- 140688824766672&#45;&gt;140688824767760+ -->
<g id="edge11" class="edge">
<title>140688824766672&#45;&gt;140688824767760+</title>
<path fill="none" stroke="black" d="M492.2,-89.91C501.52,-91.5 510.5,-93.04 518.6,-94.43"/>
<polygon fill="black" stroke="black" points="518.24,-97.92 528.68,-96.16 519.42,-91.02 518.24,-97.92"/>
</g>
<!-- 140688824766672*&#45;&gt;140688824766672 -->
<g id="edge4" class="edge">
<title>140688824766672*&#45;&gt;140688824766672</title>
<path fill="none" stroke="black" d="M263.01,-73.5C270.52,-73.5 279.21,-73.5 288.47,-73.5"/>
<polygon fill="black" stroke="black" points="288.72,-77 298.72,-73.5 288.72,-70 288.72,-77"/>
</g>
<!-- 140688824767760 -->
<g id="node12" class="node">
<title>140688824767760</title>
<polygon fill="none" stroke="black" points="618,-82.5 618,-118.5 864,-118.5 864,-82.5 618,-82.5"/>
<text text-anchor="middle" x="671" y="-96.8" font-family="Times,serif" font-size="14.00">w1*x1 + w2*x2</text>
<polyline fill="none" stroke="black" points="724,-82.5 724,-118.5 "/>
<text text-anchor="middle" x="760" y="-96.8" font-family="Times,serif" font-size="14.00">&#45;6.000000</text>
<polyline fill="none" stroke="black" points="796,-82.5 796,-118.5 "/>
<text text-anchor="middle" x="830" y="-96.8" font-family="Times,serif" font-size="14.00">0.499981</text>
</g>
<!-- 140688824767760&#45;&gt;140688824767568+ -->
<g id="edge6" class="edge">
<title>140688824767760&#45;&gt;140688824767568+</title>
<path fill="none" stroke="black" d="M864.22,-118.43C873.63,-119.82 882.57,-121.13 890.58,-122.3"/>
<polygon fill="black" stroke="black" points="890.13,-125.77 900.53,-123.76 891.14,-118.85 890.13,-125.77"/>
</g>
<!-- 140688824767760+&#45;&gt;140688824767760 -->
<g id="edge5" class="edge">
<title>140688824767760+&#45;&gt;140688824767760</title>
<path fill="none" stroke="black" d="M582.36,-100.5C589.73,-100.5 598.28,-100.5 607.5,-100.5"/>
<polygon fill="black" stroke="black" points="607.75,-104 617.75,-100.5 607.75,-97 607.75,-104"/>
</g>
<!-- 140688824930640 -->
<g id="node14" class="node">
<title>140688824930640</title>
<polygon fill="none" stroke="black" points="3.5,-110.5 3.5,-146.5 169.5,-146.5 169.5,-110.5 3.5,-110.5"/>
<text text-anchor="middle" x="18.5" y="-124.8" font-family="Times,serif" font-size="14.00">x2</text>
<polyline fill="none" stroke="black" points="33.5,-110.5 33.5,-146.5 "/>
<text text-anchor="middle" x="67.5" y="-124.8" font-family="Times,serif" font-size="14.00">0.000000</text>
<polyline fill="none" stroke="black" points="101.5,-110.5 101.5,-146.5 "/>
<text text-anchor="middle" x="135.5" y="-124.8" font-family="Times,serif" font-size="14.00">0.499981</text>
</g>
<!-- 140688824930640&#45;&gt;140688824767632* -->
<g id="edge10" class="edge">
<title>140688824930640&#45;&gt;140688824767632*</title>
<path fill="none" stroke="black" d="M169.87,-128.5C179.91,-128.5 189.74,-128.5 198.59,-128.5"/>
<polygon fill="black" stroke="black" points="198.85,-132 208.85,-128.5 198.85,-125 198.85,-132"/>
</g>
<!-- 140688824934224 -->
<g id="node15" class="node">
<title>140688824934224</title>
<polygon fill="none" stroke="black" points="1.5,-0.5 1.5,-36.5 171.5,-36.5 171.5,-0.5 1.5,-0.5"/>
<text text-anchor="middle" x="16.5" y="-14.8" font-family="Times,serif" font-size="14.00">x1</text>
<polyline fill="none" stroke="black" points="31.5,-0.5 31.5,-36.5 "/>
<text text-anchor="middle" x="65.5" y="-14.8" font-family="Times,serif" font-size="14.00">2.000000</text>
<polyline fill="none" stroke="black" points="99.5,-0.5 99.5,-36.5 "/>
<text text-anchor="middle" x="135.5" y="-14.8" font-family="Times,serif" font-size="14.00">&#45;1.499944</text>
</g>
<!-- 140688824934224&#45;&gt;140688824766672* -->
<g id="edge14" class="edge">
<title>140688824934224&#45;&gt;140688824766672*</title>
<path fill="none" stroke="black" d="M145.25,-36.59C154.58,-39.75 164.1,-43.11 173,-46.5 183.2,-50.38 194.18,-55.01 204.01,-59.32"/>
<polygon fill="black" stroke="black" points="202.84,-62.63 213.4,-63.5 205.68,-56.24 202.84,-62.63"/>
</g>
</g>
</svg>
