<?xml version="1.0" encoding="UTF-8" standalone="no"?>
<!DOCTYPE svg PUBLIC "-//W3C//DTD SVG 1.1//EN"
 "http://www.w3.org/Graphics/SVG/1.1/DTD/svg11.dtd">
<!-- Generated by graphviz version 3.0.0 (20220226.1711)
 -->
<!-- Pages: 1 -->
<svg width="452pt" height="45pt"
 viewBox="0.00 0.00 452.00 45.00" xmlns="http://www.w3.org/2000/svg" xmlns:xlink="http://www.w3.org/1999/xlink">
<g id="graph0" class="graph" transform="scale(1 1) rotate(0) translate(4 41)">
<polygon fill="white" stroke="transparent" points="-4,4 -4,-41 448,-41 448,4 -4,4"/>
<!-- 140688825441296 -->
<g id="node1" class="node">
<title>140688825441296</title>
<polygon fill="none" stroke="black" points="285,-0.5 285,-36.5 444,-36.5 444,-0.5 285,-0.5"/>
<text text-anchor="middle" x="296.5" y="-14.8" font-family="Times,serif" font-size="14.00">b</text>
<polyline fill="none" stroke="black" points="308,-0.5 308,-36.5 "/>
<text text-anchor="middle" x="342" y="-14.8" font-family="Times,serif" font-size="14.00">4.000000</text>
<polyline fill="none" stroke="black" points="376,-0.5 376,-36.5 "/>
<text text-anchor="middle" x="410" y="-14.8" font-family="Times,serif" font-size="14.00">0.000000</text>
</g>
<!-- 140688825441296+ -->
<g id="node2" class="node">
<title>140688825441296+</title>
<ellipse fill="none" stroke="black" cx="222" cy="-18.5" rx="27" ry="18"/>
<text text-anchor="middle" x="222" y="-14.8" font-family="Times,serif" font-size="14.00">+</text>
</g>
<!-- 140688825441296+&#45;&gt;140688825441296 -->
<g id="edge1" class="edge">
<title>140688825441296+&#45;&gt;140688825441296</title>
<path fill="none" stroke="black" d="M249.1,-18.5C256.67,-18.5 265.4,-18.5 274.59,-18.5"/>
<polygon fill="black" stroke="black" points="274.71,-22 284.71,-18.5 274.71,-15 274.71,-22"/>
</g>
<!-- 140688825440912 -->
<g id="node3" class="node">
<title>140688825440912</title>
<polygon fill="none" stroke="black" points="0,-0.5 0,-36.5 159,-36.5 159,-0.5 0,-0.5"/>
<text text-anchor="middle" x="11.5" y="-14.8" font-family="Times,serif" font-size="14.00">a</text>
<polyline fill="none" stroke="black" points="23,-0.5 23,-36.5 "/>
<text text-anchor="middle" x="57" y="-14.8" font-family="Times,serif" font-size="14.00">2.000000</text>
<polyline fill="none" stroke="black" points="91,-0.5 91,-36.5 "/>
<text text-anchor="middle" x="125" y="-14.8" font-family="Times,serif" font-size="14.00">0.000000</text>
</g>
<!-- 140688825440912&#45;&gt;140688825441296+ -->
<g id="edge2" class="edge">
<title>140688825440912&#45;&gt;140688825441296+</title>
<path fill="none" stroke="black" d="M159.37,-18.5C168.15,-18.5 176.74,-18.5 184.59,-18.5"/>
<polygon fill="black" stroke="black" points="184.78,-22 194.78,-18.5 184.78,-15 184.78,-22"/>
</g>
</g>
</svg>
