<?xml version="1.0" encoding="UTF-8" standalone="no"?>
<!DOCTYPE svg PUBLIC "-//W3C//DTD SVG 1.1//EN"
 "http://www.w3.org/Graphics/SVG/1.1/DTD/svg11.dtd">
<!-- Generated by graphviz version 3.0.0 (20220226.1711)
 -->
<!-- Pages: 1 -->
<svg width="1050pt" height="154pt"
 viewBox="0.00 0.00 1050.00 154.00" xmlns="http://www.w3.org/2000/svg" xmlns:xlink="http://www.w3.org/1999/xlink">
<g id="graph0" class="graph" transform="scale(1 1) rotate(0) translate(4 150)">
<polygon fill="white" stroke="transparent" points="-4,4 -4,-150 1046,-150 1046,4 -4,4"/>
<!-- 140688830653904 -->
<g id="node1" class="node">
<title>140688830653904</title>
<polygon fill="none" stroke="black" points="294,-27.5 294,-63.5 461,-63.5 461,-27.5 294,-27.5"/>
<text text-anchor="middle" x="305.5" y="-41.8" font-family="Times,serif" font-size="14.00">e</text>
<polyline fill="none" stroke="black" points="317,-27.5 317,-63.5 "/>
<text text-anchor="middle" x="353" y="-41.8" font-family="Times,serif" font-size="14.00">&#45;6.000000</text>
<polyline fill="none" stroke="black" points="389,-27.5 389,-63.5 "/>
<text text-anchor="middle" x="425" y="-41.8" font-family="Times,serif" font-size="14.00">&#45;2.000000</text>
</g>
<!-- 140688830655184+ -->
<g id="node5" class="node">
<title>140688830655184+</title>
<ellipse fill="none" stroke="black" cx="525" cy="-72.5" rx="27" ry="18"/>
<text text-anchor="middle" x="525" y="-68.8" font-family="Times,serif" font-size="14.00">+</text>
</g>
<!-- 140688830653904&#45;&gt;140688830655184+ -->
<g id="edge8" class="edge">
<title>140688830653904&#45;&gt;140688830655184+</title>
<path fill="none" stroke="black" d="M461.03,-60.81C470.79,-62.63 480.31,-64.39 488.87,-65.98"/>
<polygon fill="black" stroke="black" points="488.31,-69.44 498.78,-67.82 489.59,-62.55 488.31,-69.44"/>
</g>
<!-- 140688830653904* -->
<g id="node2" class="node">
<title>140688830653904*</title>
<ellipse fill="none" stroke="black" cx="230" cy="-45.5" rx="27" ry="18"/>
<text text-anchor="middle" x="230" y="-41.8" font-family="Times,serif" font-size="14.00">*</text>
</g>
<!-- 140688830653904*&#45;&gt;140688830653904 -->
<g id="edge1" class="edge">
<title>140688830653904*&#45;&gt;140688830653904</title>
<path fill="none" stroke="black" d="M257.01,-45.5C264.9,-45.5 274.06,-45.5 283.73,-45.5"/>
<polygon fill="black" stroke="black" points="283.96,-49 293.96,-45.5 283.96,-42 283.96,-49"/>
</g>
<!-- 140688830654032 -->
<g id="node3" class="node">
<title>140688830654032</title>
<polygon fill="none" stroke="black" points="0,-55.5 0,-91.5 167,-91.5 167,-55.5 0,-55.5"/>
<text text-anchor="middle" x="11.5" y="-69.8" font-family="Times,serif" font-size="14.00">b</text>
<polyline fill="none" stroke="black" points="23,-55.5 23,-91.5 "/>
<text text-anchor="middle" x="59" y="-69.8" font-family="Times,serif" font-size="14.00">&#45;3.000000</text>
<polyline fill="none" stroke="black" points="95,-55.5 95,-91.5 "/>
<text text-anchor="middle" x="131" y="-69.8" font-family="Times,serif" font-size="14.00">&#45;4.000000</text>
</g>
<!-- 140688830654032&#45;&gt;140688830653904* -->
<g id="edge9" class="edge">
<title>140688830654032&#45;&gt;140688830653904*</title>
<path fill="none" stroke="black" d="M167.3,-57.46C176.61,-55.65 185.68,-53.89 193.88,-52.31"/>
<polygon fill="black" stroke="black" points="194.59,-55.73 203.75,-50.39 193.26,-48.86 194.59,-55.73"/>
</g>
<!-- 140688830655184 -->
<g id="node4" class="node">
<title>140688830655184</title>
<polygon fill="none" stroke="black" points="588,-54.5 588,-90.5 751,-90.5 751,-54.5 588,-54.5"/>
<text text-anchor="middle" x="599.5" y="-68.8" font-family="Times,serif" font-size="14.00">d</text>
<polyline fill="none" stroke="black" points="611,-54.5 611,-90.5 "/>
<text text-anchor="middle" x="645" y="-68.8" font-family="Times,serif" font-size="14.00">4.000000</text>
<polyline fill="none" stroke="black" points="679,-54.5 679,-90.5 "/>
<text text-anchor="middle" x="715" y="-68.8" font-family="Times,serif" font-size="14.00">&#45;2.000000</text>
</g>
<!-- 140688830655376* -->
<g id="node9" class="node">
<title>140688830655376*</title>
<ellipse fill="none" stroke="black" cx="814" cy="-99.5" rx="27" ry="18"/>
<text text-anchor="middle" x="814" y="-95.8" font-family="Times,serif" font-size="14.00">*</text>
</g>
<!-- 140688830655184&#45;&gt;140688830655376* -->
<g id="edge6" class="edge">
<title>140688830655184&#45;&gt;140688830655376*</title>
<path fill="none" stroke="black" d="M751.33,-87.81C760.6,-89.57 769.66,-91.29 777.85,-92.84"/>
<polygon fill="black" stroke="black" points="777.23,-96.29 787.71,-94.71 778.54,-89.41 777.23,-96.29"/>
</g>
<!-- 140688830655184+&#45;&gt;140688830655184 -->
<g id="edge2" class="edge">
<title>140688830655184+&#45;&gt;140688830655184</title>
<path fill="none" stroke="black" d="M552.14,-72.5C559.75,-72.5 568.53,-72.5 577.78,-72.5"/>
<polygon fill="black" stroke="black" points="577.97,-76 587.97,-72.5 577.97,-69 577.97,-76"/>
</g>
<!-- 140688830652816 -->
<g id="node6" class="node">
<title>140688830652816</title>
<polygon fill="none" stroke="black" points="4,-0.5 4,-36.5 163,-36.5 163,-0.5 4,-0.5"/>
<text text-anchor="middle" x="15.5" y="-14.8" font-family="Times,serif" font-size="14.00">a</text>
<polyline fill="none" stroke="black" points="27,-0.5 27,-36.5 "/>
<text text-anchor="middle" x="61" y="-14.8" font-family="Times,serif" font-size="14.00">2.000000</text>
<polyline fill="none" stroke="black" points="95,-0.5 95,-36.5 "/>
<text text-anchor="middle" x="129" y="-14.8" font-family="Times,serif" font-size="14.00">6.000000</text>
</g>
<!-- 140688830652816&#45;&gt;140688830653904* -->
<g id="edge5" class="edge">
<title>140688830652816&#45;&gt;140688830653904*</title>
<path fill="none" stroke="black" d="M163.09,-33.19C173.77,-35.18 184.26,-37.14 193.62,-38.89"/>
<polygon fill="black" stroke="black" points="193.19,-42.37 203.66,-40.77 194.48,-35.49 193.19,-42.37"/>
</g>
<!-- 140688830654288 -->
<g id="node7" class="node">
<title>140688830654288</title>
<polygon fill="none" stroke="black" points="589,-109.5 589,-145.5 750,-145.5 750,-109.5 589,-109.5"/>
<text text-anchor="middle" x="599.5" y="-123.8" font-family="Times,serif" font-size="14.00">f</text>
<polyline fill="none" stroke="black" points="610,-109.5 610,-145.5 "/>
<text text-anchor="middle" x="646" y="-123.8" font-family="Times,serif" font-size="14.00">&#45;2.000000</text>
<polyline fill="none" stroke="black" points="682,-109.5 682,-145.5 "/>
<text text-anchor="middle" x="716" y="-123.8" font-family="Times,serif" font-size="14.00">4.000000</text>
</g>
<!-- 140688830654288&#45;&gt;140688830655376* -->
<g id="edge4" class="edge">
<title>140688830654288&#45;&gt;140688830655376*</title>
<path fill="none" stroke="black" d="M750.08,-111.86C759.78,-109.96 769.27,-108.09 777.82,-106.41"/>
<polygon fill="black" stroke="black" points="778.6,-109.83 787.73,-104.46 777.25,-102.96 778.6,-109.83"/>
</g>
<!-- 140688830655376 -->
<g id="node8" class="node">
<title>140688830655376</title>
<polygon fill="none" stroke="black" points="877,-81.5 877,-117.5 1042,-117.5 1042,-81.5 877,-81.5"/>
<text text-anchor="middle" x="889.5" y="-95.8" font-family="Times,serif" font-size="14.00">L</text>
<polyline fill="none" stroke="black" points="902,-81.5 902,-117.5 "/>
<text text-anchor="middle" x="938" y="-95.8" font-family="Times,serif" font-size="14.00">&#45;8.000000</text>
<polyline fill="none" stroke="black" points="974,-81.5 974,-117.5 "/>
<text text-anchor="middle" x="1008" y="-95.8" font-family="Times,serif" font-size="14.00">1.000000</text>
</g>
<!-- 140688830655376*&#45;&gt;140688830655376 -->
<g id="edge3" class="edge">
<title>140688830655376*&#45;&gt;140688830655376</title>
<path fill="none" stroke="black" d="M841.32,-99.5C848.87,-99.5 857.55,-99.5 866.71,-99.5"/>
<polygon fill="black" stroke="black" points="866.8,-103 876.8,-99.5 866.8,-96 866.8,-103"/>
</g>
<!-- 140688830652880 -->
<g id="node10" class="node">
<title>140688830652880</title>
<polygon fill="none" stroke="black" points="293,-82.5 293,-118.5 462,-118.5 462,-82.5 293,-82.5"/>
<text text-anchor="middle" x="304.5" y="-96.8" font-family="Times,serif" font-size="14.00">c</text>
<polyline fill="none" stroke="black" points="316,-82.5 316,-118.5 "/>
<text text-anchor="middle" x="353" y="-96.8" font-family="Times,serif" font-size="14.00">10.000000</text>
<polyline fill="none" stroke="black" points="390,-82.5 390,-118.5 "/>
<text text-anchor="middle" x="426" y="-96.8" font-family="Times,serif" font-size="14.00">&#45;2.000000</text>
</g>
<!-- 140688830652880&#45;&gt;140688830655184+ -->
<g id="edge7" class="edge">
<title>140688830652880&#45;&gt;140688830655184+</title>
<path fill="none" stroke="black" d="M462.29,-84.37C471.62,-82.58 480.7,-80.83 488.9,-79.25"/>
<polygon fill="black" stroke="black" points="489.61,-82.68 498.77,-77.36 488.29,-75.81 489.61,-82.68"/>
</g>
</g>
</svg>
