<?xml version="1.0" encoding="UTF-8" standalone="no"?>
<!DOCTYPE svg PUBLIC "-//W3C//DTD SVG 1.1//EN"
 "http://www.w3.org/Graphics/SVG/1.1/DTD/svg11.dtd">
<!-- Generated by graphviz version 3.0.0 (20220226.1711)
 -->
<!-- Pages: 1 -->
<svg width="1042pt" height="154pt"
 viewBox="0.00 0.00 1042.00 154.00" xmlns="http://www.w3.org/2000/svg" xmlns:xlink="http://www.w3.org/1999/xlink">
<g id="graph0" class="graph" transform="scale(1 1) rotate(0) translate(4 150)">
<polygon fill="white" stroke="transparent" points="-4,4 -4,-150 1038,-150 1038,4 -4,4"/>
<!-- 140688821507152 -->
<g id="node1" class="node">
<title>140688821507152</title>
<polygon fill="none" stroke="black" points="293,-27.5 293,-63.5 456,-63.5 456,-27.5 293,-27.5"/>
<text text-anchor="middle" x="304.5" y="-41.8" font-family="Times,serif" font-size="14.00">e</text>
<polyline fill="none" stroke="black" points="316,-27.5 316,-63.5 "/>
<text text-anchor="middle" x="352" y="-41.8" font-family="Times,serif" font-size="14.00">&#45;6.262400</text>
<polyline fill="none" stroke="black" points="388,-27.5 388,-63.5 "/>
<text text-anchor="middle" x="422" y="-41.8" font-family="Times,serif" font-size="14.00">0.000000</text>
</g>
<!-- 140688821507216+ -->
<g id="node5" class="node">
<title>140688821507216+</title>
<ellipse fill="none" stroke="black" cx="519" cy="-72.5" rx="27" ry="18"/>
<text text-anchor="middle" x="519" y="-68.8" font-family="Times,serif" font-size="14.00">+</text>
</g>
<!-- 140688821507152&#45;&gt;140688821507216+ -->
<g id="edge4" class="edge">
<title>140688821507152&#45;&gt;140688821507216+</title>
<path fill="none" stroke="black" d="M456.33,-60.81C465.6,-62.57 474.66,-64.29 482.85,-65.84"/>
<polygon fill="black" stroke="black" points="482.23,-69.29 492.71,-67.71 483.54,-62.41 482.23,-69.29"/>
</g>
<!-- 140688821507152* -->
<g id="node2" class="node">
<title>140688821507152*</title>
<ellipse fill="none" stroke="black" cx="230" cy="-45.5" rx="27" ry="18"/>
<text text-anchor="middle" x="230" y="-41.8" font-family="Times,serif" font-size="14.00">*</text>
</g>
<!-- 140688821507152*&#45;&gt;140688821507152 -->
<g id="edge1" class="edge">
<title>140688821507152*&#45;&gt;140688821507152</title>
<path fill="none" stroke="black" d="M257.14,-45.5C264.75,-45.5 273.53,-45.5 282.78,-45.5"/>
<polygon fill="black" stroke="black" points="282.97,-49 292.97,-45.5 282.97,-42 282.97,-49"/>
</g>
<!-- 140688830654032 -->
<g id="node3" class="node">
<title>140688830654032</title>
<polygon fill="none" stroke="black" points="0,-55.5 0,-91.5 167,-91.5 167,-55.5 0,-55.5"/>
<text text-anchor="middle" x="11.5" y="-69.8" font-family="Times,serif" font-size="14.00">b</text>
<polyline fill="none" stroke="black" points="23,-55.5 23,-91.5 "/>
<text text-anchor="middle" x="59" y="-69.8" font-family="Times,serif" font-size="14.00">&#45;3.040000</text>
<polyline fill="none" stroke="black" points="95,-55.5 95,-91.5 "/>
<text text-anchor="middle" x="131" y="-69.8" font-family="Times,serif" font-size="14.00">&#45;4.000000</text>
</g>
<!-- 140688830654032&#45;&gt;140688821507152* -->
<g id="edge5" class="edge">
<title>140688830654032&#45;&gt;140688821507152*</title>
<path fill="none" stroke="black" d="M167.3,-57.46C176.61,-55.65 185.68,-53.89 193.88,-52.31"/>
<polygon fill="black" stroke="black" points="194.59,-55.73 203.75,-50.39 193.26,-48.86 194.59,-55.73"/>
</g>
<!-- 140688821507216 -->
<g id="node4" class="node">
<title>140688821507216</title>
<polygon fill="none" stroke="black" points="583,-54.5 583,-90.5 742,-90.5 742,-54.5 583,-54.5"/>
<text text-anchor="middle" x="594.5" y="-68.8" font-family="Times,serif" font-size="14.00">d</text>
<polyline fill="none" stroke="black" points="606,-54.5 606,-90.5 "/>
<text text-anchor="middle" x="640" y="-68.8" font-family="Times,serif" font-size="14.00">3.717600</text>
<polyline fill="none" stroke="black" points="674,-54.5 674,-90.5 "/>
<text text-anchor="middle" x="708" y="-68.8" font-family="Times,serif" font-size="14.00">0.000000</text>
</g>
<!-- 140688821506384* -->
<g id="node7" class="node">
<title>140688821506384*</title>
<ellipse fill="none" stroke="black" cx="806" cy="-99.5" rx="27" ry="18"/>
<text text-anchor="middle" x="806" y="-95.8" font-family="Times,serif" font-size="14.00">*</text>
</g>
<!-- 140688821507216&#45;&gt;140688821506384* -->
<g id="edge8" class="edge">
<title>140688821507216&#45;&gt;140688821506384*</title>
<path fill="none" stroke="black" d="M742.11,-87.5C751.79,-89.35 761.27,-91.16 769.81,-92.79"/>
<polygon fill="black" stroke="black" points="769.24,-96.24 779.72,-94.68 770.56,-89.36 769.24,-96.24"/>
</g>
<!-- 140688821507216+&#45;&gt;140688821507216 -->
<g id="edge2" class="edge">
<title>140688821507216+&#45;&gt;140688821507216</title>
<path fill="none" stroke="black" d="M546.28,-72.5C554.11,-72.5 563.17,-72.5 572.68,-72.5"/>
<polygon fill="black" stroke="black" points="572.74,-76 582.74,-72.5 572.74,-69 572.74,-76"/>
</g>
<!-- 140688821506384 -->
<g id="node6" class="node">
<title>140688821506384</title>
<polygon fill="none" stroke="black" points="869,-81.5 869,-117.5 1034,-117.5 1034,-81.5 869,-81.5"/>
<text text-anchor="middle" x="881.5" y="-95.8" font-family="Times,serif" font-size="14.00">L</text>
<polyline fill="none" stroke="black" points="894,-81.5 894,-117.5 "/>
<text text-anchor="middle" x="930" y="-95.8" font-family="Times,serif" font-size="14.00">&#45;7.286496</text>
<polyline fill="none" stroke="black" points="966,-81.5 966,-117.5 "/>
<text text-anchor="middle" x="1000" y="-95.8" font-family="Times,serif" font-size="14.00">0.000000</text>
</g>
<!-- 140688821506384*&#45;&gt;140688821506384 -->
<g id="edge3" class="edge">
<title>140688821506384*&#45;&gt;140688821506384</title>
<path fill="none" stroke="black" d="M833.32,-99.5C840.87,-99.5 849.55,-99.5 858.71,-99.5"/>
<polygon fill="black" stroke="black" points="858.8,-103 868.8,-99.5 858.8,-96 858.8,-103"/>
</g>
<!-- 140688830654288 -->
<g id="node8" class="node">
<title>140688830654288</title>
<polygon fill="none" stroke="black" points="582,-109.5 582,-145.5 743,-145.5 743,-109.5 582,-109.5"/>
<text text-anchor="middle" x="592.5" y="-123.8" font-family="Times,serif" font-size="14.00">f</text>
<polyline fill="none" stroke="black" points="603,-109.5 603,-145.5 "/>
<text text-anchor="middle" x="639" y="-123.8" font-family="Times,serif" font-size="14.00">&#45;1.960000</text>
<polyline fill="none" stroke="black" points="675,-109.5 675,-145.5 "/>
<text text-anchor="middle" x="709" y="-123.8" font-family="Times,serif" font-size="14.00">4.000000</text>
</g>
<!-- 140688830654288&#45;&gt;140688821506384* -->
<g id="edge6" class="edge">
<title>140688830654288&#45;&gt;140688821506384*</title>
<path fill="none" stroke="black" d="M743.35,-111.7C752.69,-109.85 761.82,-108.04 770.07,-106.41"/>
<polygon fill="black" stroke="black" points="770.86,-109.82 779.99,-104.45 769.5,-102.96 770.86,-109.82"/>
</g>
<!-- 140688830652816 -->
<g id="node9" class="node">
<title>140688830652816</title>
<polygon fill="none" stroke="black" points="4,-0.5 4,-36.5 163,-36.5 163,-0.5 4,-0.5"/>
<text text-anchor="middle" x="15.5" y="-14.8" font-family="Times,serif" font-size="14.00">a</text>
<polyline fill="none" stroke="black" points="27,-0.5 27,-36.5 "/>
<text text-anchor="middle" x="61" y="-14.8" font-family="Times,serif" font-size="14.00">2.060000</text>
<polyline fill="none" stroke="black" points="95,-0.5 95,-36.5 "/>
<text text-anchor="middle" x="129" y="-14.8" font-family="Times,serif" font-size="14.00">6.000000</text>
</g>
<!-- 140688830652816&#45;&gt;140688821507152* -->
<g id="edge9" class="edge">
<title>140688830652816&#45;&gt;140688821507152*</title>
<path fill="none" stroke="black" d="M163.09,-33.19C173.77,-35.18 184.26,-37.14 193.62,-38.89"/>
<polygon fill="black" stroke="black" points="193.19,-42.37 203.66,-40.77 194.48,-35.49 193.19,-42.37"/>
</g>
<!-- 140688830652880 -->
<g id="node10" class="node">
<title>140688830652880</title>
<polygon fill="none" stroke="black" points="293,-82.5 293,-118.5 456,-118.5 456,-82.5 293,-82.5"/>
<text text-anchor="middle" x="304.5" y="-96.8" font-family="Times,serif" font-size="14.00">c</text>
<polyline fill="none" stroke="black" points="316,-82.5 316,-118.5 "/>
<text text-anchor="middle" x="350" y="-96.8" font-family="Times,serif" font-size="14.00">9.980000</text>
<polyline fill="none" stroke="black" points="384,-82.5 384,-118.5 "/>
<text text-anchor="middle" x="420" y="-96.8" font-family="Times,serif" font-size="14.00">&#45;2.000000</text>
</g>
<!-- 140688830652880&#45;&gt;140688821507216+ -->
<g id="edge7" class="edge">
<title>140688830652880&#45;&gt;140688821507216+</title>
<path fill="none" stroke="black" d="M456.33,-84.62C465.69,-82.78 474.83,-80.98 483.08,-79.36"/>
<polygon fill="black" stroke="black" points="483.87,-82.77 493.01,-77.41 482.52,-75.9 483.87,-82.77"/>
</g>
</g>
</svg>
