<?xml version="1.0" encoding="UTF-8" standalone="no"?>
<!DOCTYPE svg PUBLIC "-//W3C//DTD SVG 1.1//EN"
 "http://www.w3.org/Graphics/SVG/1.1/DTD/svg11.dtd">
<!-- Generated by graphviz version 3.0.0 (20220226.1711)
 -->
<!-- Pages: 1 -->
<svg width="1040pt" height="154pt"
 viewBox="0.00 0.00 1040.00 154.00" xmlns="http://www.w3.org/2000/svg" xmlns:xlink="http://www.w3.org/1999/xlink">
<g id="graph0" class="graph" transform="scale(1 1) rotate(0) translate(4 150)">
<polygon fill="white" stroke="transparent" points="-4,4 -4,-150 1036,-150 1036,4 -4,4"/>
<!-- 140688830653904 -->
<g id="node1" class="node">
<title>140688830653904</title>
<polygon fill="none" stroke="black" points="290,-27.5 290,-63.5 453,-63.5 453,-27.5 290,-27.5"/>
<text text-anchor="middle" x="301.5" y="-41.8" font-family="Times,serif" font-size="14.00">e</text>
<polyline fill="none" stroke="black" points="313,-27.5 313,-63.5 "/>
<text text-anchor="middle" x="349" y="-41.8" font-family="Times,serif" font-size="14.00">&#45;6.000000</text>
<polyline fill="none" stroke="black" points="385,-27.5 385,-63.5 "/>
<text text-anchor="middle" x="419" y="-41.8" font-family="Times,serif" font-size="14.00">0.000000</text>
</g>
<!-- 140688830655184+ -->
<g id="node5" class="node">
<title>140688830655184+</title>
<ellipse fill="none" stroke="black" cx="517" cy="-72.5" rx="27" ry="18"/>
<text text-anchor="middle" x="517" y="-68.8" font-family="Times,serif" font-size="14.00">+</text>
</g>
<!-- 140688830653904&#45;&gt;140688830655184+ -->
<g id="edge8" class="edge">
<title>140688830653904&#45;&gt;140688830655184+</title>
<path fill="none" stroke="black" d="M453.06,-60.66C462.78,-62.49 472.28,-64.27 480.83,-65.88"/>
<polygon fill="black" stroke="black" points="480.27,-69.34 490.75,-67.75 481.57,-62.46 480.27,-69.34"/>
</g>
<!-- 140688830653904* -->
<g id="node2" class="node">
<title>140688830653904*</title>
<ellipse fill="none" stroke="black" cx="226" cy="-45.5" rx="27" ry="18"/>
<text text-anchor="middle" x="226" y="-41.8" font-family="Times,serif" font-size="14.00">*</text>
</g>
<!-- 140688830653904*&#45;&gt;140688830653904 -->
<g id="edge1" class="edge">
<title>140688830653904*&#45;&gt;140688830653904</title>
<path fill="none" stroke="black" d="M253.32,-45.5C261.13,-45.5 270.15,-45.5 279.66,-45.5"/>
<polygon fill="black" stroke="black" points="279.71,-49 289.71,-45.5 279.71,-42 279.71,-49"/>
</g>
<!-- 140688830654032 -->
<g id="node3" class="node">
<title>140688830654032</title>
<polygon fill="none" stroke="black" points="0,-55.5 0,-91.5 163,-91.5 163,-55.5 0,-55.5"/>
<text text-anchor="middle" x="11.5" y="-69.8" font-family="Times,serif" font-size="14.00">b</text>
<polyline fill="none" stroke="black" points="23,-55.5 23,-91.5 "/>
<text text-anchor="middle" x="59" y="-69.8" font-family="Times,serif" font-size="14.00">&#45;3.000000</text>
<polyline fill="none" stroke="black" points="95,-55.5 95,-91.5 "/>
<text text-anchor="middle" x="129" y="-69.8" font-family="Times,serif" font-size="14.00">0.000000</text>
</g>
<!-- 140688830654032&#45;&gt;140688830653904* -->
<g id="edge9" class="edge">
<title>140688830654032&#45;&gt;140688830653904*</title>
<path fill="none" stroke="black" d="M163.33,-57.62C172.69,-55.78 181.83,-53.98 190.08,-52.36"/>
<polygon fill="black" stroke="black" points="190.87,-55.77 200.01,-50.41 189.52,-48.9 190.87,-55.77"/>
</g>
<!-- 140688830655184 -->
<g id="node4" class="node">
<title>140688830655184</title>
<polygon fill="none" stroke="black" points="581,-54.5 581,-90.5 740,-90.5 740,-54.5 581,-54.5"/>
<text text-anchor="middle" x="592.5" y="-68.8" font-family="Times,serif" font-size="14.00">d</text>
<polyline fill="none" stroke="black" points="604,-54.5 604,-90.5 "/>
<text text-anchor="middle" x="638" y="-68.8" font-family="Times,serif" font-size="14.00">4.000000</text>
<polyline fill="none" stroke="black" points="672,-54.5 672,-90.5 "/>
<text text-anchor="middle" x="706" y="-68.8" font-family="Times,serif" font-size="14.00">0.000000</text>
</g>
<!-- 140688830655376* -->
<g id="node9" class="node">
<title>140688830655376*</title>
<ellipse fill="none" stroke="black" cx="804" cy="-99.5" rx="27" ry="18"/>
<text text-anchor="middle" x="804" y="-95.8" font-family="Times,serif" font-size="14.00">*</text>
</g>
<!-- 140688830655184&#45;&gt;140688830655376* -->
<g id="edge6" class="edge">
<title>140688830655184&#45;&gt;140688830655376*</title>
<path fill="none" stroke="black" d="M740.11,-87.5C749.79,-89.35 759.27,-91.16 767.81,-92.79"/>
<polygon fill="black" stroke="black" points="767.24,-96.24 777.72,-94.68 768.56,-89.36 767.24,-96.24"/>
</g>
<!-- 140688830655184+&#45;&gt;140688830655184 -->
<g id="edge2" class="edge">
<title>140688830655184+&#45;&gt;140688830655184</title>
<path fill="none" stroke="black" d="M544.28,-72.5C552.11,-72.5 561.17,-72.5 570.68,-72.5"/>
<polygon fill="black" stroke="black" points="570.74,-76 580.74,-72.5 570.74,-69 570.74,-76"/>
</g>
<!-- 140688830652816 -->
<g id="node6" class="node">
<title>140688830652816</title>
<polygon fill="none" stroke="black" points="2,-0.5 2,-36.5 161,-36.5 161,-0.5 2,-0.5"/>
<text text-anchor="middle" x="13.5" y="-14.8" font-family="Times,serif" font-size="14.00">a</text>
<polyline fill="none" stroke="black" points="25,-0.5 25,-36.5 "/>
<text text-anchor="middle" x="59" y="-14.8" font-family="Times,serif" font-size="14.00">2.000000</text>
<polyline fill="none" stroke="black" points="93,-0.5 93,-36.5 "/>
<text text-anchor="middle" x="127" y="-14.8" font-family="Times,serif" font-size="14.00">0.000000</text>
</g>
<!-- 140688830652816&#45;&gt;140688830653904* -->
<g id="edge5" class="edge">
<title>140688830652816&#45;&gt;140688830653904*</title>
<path fill="none" stroke="black" d="M161.25,-33.42C171.14,-35.29 180.83,-37.13 189.55,-38.78"/>
<polygon fill="black" stroke="black" points="189.18,-42.28 199.66,-40.7 190.48,-35.4 189.18,-42.28"/>
</g>
<!-- 140688830654288 -->
<g id="node7" class="node">
<title>140688830654288</title>
<polygon fill="none" stroke="black" points="580,-109.5 580,-145.5 741,-145.5 741,-109.5 580,-109.5"/>
<text text-anchor="middle" x="590.5" y="-123.8" font-family="Times,serif" font-size="14.00">f</text>
<polyline fill="none" stroke="black" points="601,-109.5 601,-145.5 "/>
<text text-anchor="middle" x="637" y="-123.8" font-family="Times,serif" font-size="14.00">&#45;2.000000</text>
<polyline fill="none" stroke="black" points="673,-109.5 673,-145.5 "/>
<text text-anchor="middle" x="707" y="-123.8" font-family="Times,serif" font-size="14.00">0.000000</text>
</g>
<!-- 140688830654288&#45;&gt;140688830655376* -->
<g id="edge4" class="edge">
<title>140688830654288&#45;&gt;140688830655376*</title>
<path fill="none" stroke="black" d="M741.35,-111.7C750.69,-109.85 759.82,-108.04 768.07,-106.41"/>
<polygon fill="black" stroke="black" points="768.86,-109.82 777.99,-104.45 767.5,-102.96 768.86,-109.82"/>
</g>
<!-- 140688830655376 -->
<g id="node8" class="node">
<title>140688830655376</title>
<polygon fill="none" stroke="black" points="867,-81.5 867,-117.5 1032,-117.5 1032,-81.5 867,-81.5"/>
<text text-anchor="middle" x="879.5" y="-95.8" font-family="Times,serif" font-size="14.00">L</text>
<polyline fill="none" stroke="black" points="892,-81.5 892,-117.5 "/>
<text text-anchor="middle" x="928" y="-95.8" font-family="Times,serif" font-size="14.00">&#45;8.000000</text>
<polyline fill="none" stroke="black" points="964,-81.5 964,-117.5 "/>
<text text-anchor="middle" x="998" y="-95.8" font-family="Times,serif" font-size="14.00">0.000000</text>
</g>
<!-- 140688830655376*&#45;&gt;140688830655376 -->
<g id="edge3" class="edge">
<title>140688830655376*&#45;&gt;140688830655376</title>
<path fill="none" stroke="black" d="M831.32,-99.5C838.87,-99.5 847.55,-99.5 856.71,-99.5"/>
<polygon fill="black" stroke="black" points="856.8,-103 866.8,-99.5 856.8,-96 856.8,-103"/>
</g>
<!-- 140688830652880 -->
<g id="node10" class="node">
<title>140688830652880</title>
<polygon fill="none" stroke="black" points="289,-82.5 289,-118.5 454,-118.5 454,-82.5 289,-82.5"/>
<text text-anchor="middle" x="300.5" y="-96.8" font-family="Times,serif" font-size="14.00">c</text>
<polyline fill="none" stroke="black" points="312,-82.5 312,-118.5 "/>
<text text-anchor="middle" x="349" y="-96.8" font-family="Times,serif" font-size="14.00">10.000000</text>
<polyline fill="none" stroke="black" points="386,-82.5 386,-118.5 "/>
<text text-anchor="middle" x="420" y="-96.8" font-family="Times,serif" font-size="14.00">0.000000</text>
</g>
<!-- 140688830652880&#45;&gt;140688830655184+ -->
<g id="edge7" class="edge">
<title>140688830652880&#45;&gt;140688830655184+</title>
<path fill="none" stroke="black" d="M454.31,-84.54C463.6,-82.72 472.67,-80.96 480.86,-79.36"/>
<polygon fill="black" stroke="black" points="481.58,-82.78 490.73,-77.43 480.24,-75.91 481.58,-82.78"/>
</g>
</g>
</svg>
