<?xml version="1.0" encoding="UTF-8" standalone="no"?>
<!DOCTYPE svg PUBLIC "-//W3C//DTD SVG 1.1//EN"
 "http://www.w3.org/Graphics/SVG/1.1/DTD/svg11.dtd">
<!-- Generated by graphviz version 3.0.0 (20220226.1711)
 -->
<!-- Pages: 1 -->
<svg width="2732pt" height="210pt"
 viewBox="0.00 0.00 2732.00 210.00" xmlns="http://www.w3.org/2000/svg" xmlns:xlink="http://www.w3.org/1999/xlink">
<g id="graph0" class="graph" transform="scale(1 1) rotate(0) translate(4 206)">
<polygon fill="white" stroke="transparent" points="-4,4 -4,-206 2728,-206 2728,4 -4,4"/>
<!-- 140689038894096 -->
<g id="node1" class="node">
<title>140689038894096</title>
<polygon fill="none" stroke="black" points="1893,-108.5 1893,-144.5 2052,-144.5 2052,-108.5 1893,-108.5"/>
<text text-anchor="middle" x="1904.5" y="-122.8" font-family="Times,serif" font-size="14.00">d</text>
<polyline fill="none" stroke="black" points="1916,-108.5 1916,-144.5 "/>
<text text-anchor="middle" x="1950" y="-122.8" font-family="Times,serif" font-size="14.00">6.828735</text>
<polyline fill="none" stroke="black" points="1984,-108.5 1984,-144.5 "/>
<text text-anchor="middle" x="2018" y="-122.8" font-family="Times,serif" font-size="14.00">0.000000</text>
</g>
<!-- 140689039102096**&#45;1 -->
<g id="node12" class="node">
<title>140689039102096**&#45;1</title>
<ellipse fill="none" stroke="black" cx="2167.5" cy="-126.5" rx="27" ry="18"/>
<text text-anchor="middle" x="2167.5" y="-122.8" font-family="Times,serif" font-size="14.00">**&#45;1</text>
</g>
<!-- 140689038894096&#45;&gt;140689039102096**&#45;1 -->
<g id="edge22" class="edge">
<title>140689038894096&#45;&gt;140689039102096**&#45;1</title>
<path fill="none" stroke="black" d="M2052,-126.5C2079.09,-126.5 2108.13,-126.5 2130.19,-126.5"/>
<polygon fill="black" stroke="black" points="2130.42,-130 2140.42,-126.5 2130.42,-123 2130.42,-130"/>
</g>
<!-- 140689038894096+ -->
<g id="node2" class="node">
<title>140689038894096+</title>
<ellipse fill="none" stroke="black" cx="1830" cy="-126.5" rx="27" ry="18"/>
<text text-anchor="middle" x="1830" y="-122.8" font-family="Times,serif" font-size="14.00">+</text>
</g>
<!-- 140689038894096+&#45;&gt;140689038894096 -->
<g id="edge1" class="edge">
<title>140689038894096+&#45;&gt;140689038894096</title>
<path fill="none" stroke="black" d="M1857.1,-126.5C1864.67,-126.5 1873.4,-126.5 1882.59,-126.5"/>
<polygon fill="black" stroke="black" points="1882.71,-130 1892.71,-126.5 1882.71,-123 1882.71,-130"/>
</g>
<!-- 140689038874640 -->
<g id="node3" class="node">
<title>140689038874640</title>
<polygon fill="none" stroke="black" points="1585,-81.5 1585,-117.5 1764,-117.5 1764,-81.5 1585,-81.5"/>
<text text-anchor="middle" x="1606.5" y="-95.8" font-family="Times,serif" font-size="14.00">expq</text>
<polyline fill="none" stroke="black" points="1628,-81.5 1628,-117.5 "/>
<text text-anchor="middle" x="1662" y="-95.8" font-family="Times,serif" font-size="14.00">5.828735</text>
<polyline fill="none" stroke="black" points="1696,-81.5 1696,-117.5 "/>
<text text-anchor="middle" x="1730" y="-95.8" font-family="Times,serif" font-size="14.00">0.000000</text>
</g>
<!-- 140689038874640&#45;&gt;140689038894096+ -->
<g id="edge28" class="edge">
<title>140689038874640&#45;&gt;140689038894096+</title>
<path fill="none" stroke="black" d="M1764.35,-115.13C1774.74,-116.96 1784.82,-118.73 1793.82,-120.31"/>
<polygon fill="black" stroke="black" points="1793.37,-123.79 1803.83,-122.07 1794.58,-116.89 1793.37,-123.79"/>
</g>
<!-- 140689038896464+ -->
<g id="node24" class="node">
<title>140689038896464+</title>
<ellipse fill="none" stroke="black" cx="1830" cy="-71.5" rx="27" ry="18"/>
<text text-anchor="middle" x="1830" y="-67.8" font-family="Times,serif" font-size="14.00">+</text>
</g>
<!-- 140689038874640&#45;&gt;140689038896464+ -->
<g id="edge12" class="edge">
<title>140689038874640&#45;&gt;140689038896464+</title>
<path fill="none" stroke="black" d="M1764.35,-83.29C1774.74,-81.4 1784.82,-79.56 1793.82,-77.92"/>
<polygon fill="black" stroke="black" points="1794.62,-81.33 1803.83,-76.09 1793.36,-74.44 1794.62,-81.33"/>
</g>
<!-- 140689038874640exp -->
<g id="node4" class="node">
<title>140689038874640exp</title>
<ellipse fill="none" stroke="black" cx="1519" cy="-99.5" rx="27" ry="18"/>
<text text-anchor="middle" x="1519" y="-95.8" font-family="Times,serif" font-size="14.00">exp</text>
</g>
<!-- 140689038874640exp&#45;&gt;140689038874640 -->
<g id="edge2" class="edge">
<title>140689038874640exp&#45;&gt;140689038874640</title>
<path fill="none" stroke="black" d="M1546.04,-99.5C1554.4,-99.5 1564.22,-99.5 1574.63,-99.5"/>
<polygon fill="black" stroke="black" points="1574.76,-103 1584.76,-99.5 1574.76,-96 1574.76,-103"/>
</g>
<!-- 140688822576656 -->
<g id="node5" class="node">
<title>140688822576656</title>
<polygon fill="none" stroke="black" points="2,-55.5 2,-91.5 171,-91.5 171,-55.5 2,-55.5"/>
<text text-anchor="middle" x="18.5" y="-69.8" font-family="Times,serif" font-size="14.00">w2</text>
<polyline fill="none" stroke="black" points="35,-55.5 35,-91.5 "/>
<text text-anchor="middle" x="69" y="-69.8" font-family="Times,serif" font-size="14.00">1.000000</text>
<polyline fill="none" stroke="black" points="103,-55.5 103,-91.5 "/>
<text text-anchor="middle" x="137" y="-69.8" font-family="Times,serif" font-size="14.00">0.000000</text>
</g>
<!-- 140688825703056* -->
<g id="node17" class="node">
<title>140688825703056*</title>
<ellipse fill="none" stroke="black" cx="236" cy="-73.5" rx="27" ry="18"/>
<text text-anchor="middle" x="236" y="-69.8" font-family="Times,serif" font-size="14.00">*</text>
</g>
<!-- 140688822576656&#45;&gt;140688825703056* -->
<g id="edge24" class="edge">
<title>140688822576656&#45;&gt;140688825703056*</title>
<path fill="none" stroke="black" d="M171.16,-73.5C180.76,-73.5 190.14,-73.5 198.61,-73.5"/>
<polygon fill="black" stroke="black" points="198.82,-77 208.82,-73.5 198.82,-70 198.82,-77"/>
</g>
<!-- 140689038873168 -->
<g id="node6" class="node">
<title>140689038873168</title>
<polygon fill="none" stroke="black" points="1297,-81.5 1297,-117.5 1456,-117.5 1456,-81.5 1297,-81.5"/>
<text text-anchor="middle" x="1308.5" y="-95.8" font-family="Times,serif" font-size="14.00">q</text>
<polyline fill="none" stroke="black" points="1320,-81.5 1320,-117.5 "/>
<text text-anchor="middle" x="1354" y="-95.8" font-family="Times,serif" font-size="14.00">1.762800</text>
<polyline fill="none" stroke="black" points="1388,-81.5 1388,-117.5 "/>
<text text-anchor="middle" x="1422" y="-95.8" font-family="Times,serif" font-size="14.00">0.000000</text>
</g>
<!-- 140689038873168&#45;&gt;140689038874640exp -->
<g id="edge18" class="edge">
<title>140689038873168&#45;&gt;140689038874640exp</title>
<path fill="none" stroke="black" d="M1456.37,-99.5C1465.15,-99.5 1473.74,-99.5 1481.59,-99.5"/>
<polygon fill="black" stroke="black" points="1481.78,-103 1491.78,-99.5 1481.78,-96 1481.78,-103"/>
</g>
<!-- 140689038873168* -->
<g id="node7" class="node">
<title>140689038873168*</title>
<ellipse fill="none" stroke="black" cx="1234" cy="-99.5" rx="27" ry="18"/>
<text text-anchor="middle" x="1234" y="-95.8" font-family="Times,serif" font-size="14.00">*</text>
</g>
<!-- 140689038873168*&#45;&gt;140689038873168 -->
<g id="edge3" class="edge">
<title>140689038873168*&#45;&gt;140689038873168</title>
<path fill="none" stroke="black" d="M1261.1,-99.5C1268.67,-99.5 1277.4,-99.5 1286.59,-99.5"/>
<polygon fill="black" stroke="black" points="1286.71,-103 1296.71,-99.5 1286.71,-96 1286.71,-103"/>
</g>
<!-- 140688825700944 -->
<g id="node8" class="node">
<title>140688825700944</title>
<polygon fill="none" stroke="black" points="299,-110.5 299,-146.5 492,-146.5 492,-110.5 299,-110.5"/>
<text text-anchor="middle" x="325.5" y="-124.8" font-family="Times,serif" font-size="14.00">w1*x1</text>
<polyline fill="none" stroke="black" points="352,-110.5 352,-146.5 "/>
<text text-anchor="middle" x="388" y="-124.8" font-family="Times,serif" font-size="14.00">&#45;6.000000</text>
<polyline fill="none" stroke="black" points="424,-110.5 424,-146.5 "/>
<text text-anchor="middle" x="458" y="-124.8" font-family="Times,serif" font-size="14.00">0.000000</text>
</g>
<!-- 140688825703568+ -->
<g id="node15" class="node">
<title>140688825703568+</title>
<ellipse fill="none" stroke="black" cx="555" cy="-100.5" rx="27" ry="18"/>
<text text-anchor="middle" x="555" y="-96.8" font-family="Times,serif" font-size="14.00">+</text>
</g>
<!-- 140688825700944&#45;&gt;140688825703568+ -->
<g id="edge11" class="edge">
<title>140688825700944&#45;&gt;140688825703568+</title>
<path fill="none" stroke="black" d="M492.2,-111.49C501.52,-109.83 510.5,-108.23 518.6,-106.79"/>
<polygon fill="black" stroke="black" points="519.45,-110.2 528.68,-105 518.23,-103.31 519.45,-110.2"/>
</g>
<!-- 140688825700944* -->
<g id="node9" class="node">
<title>140688825700944*</title>
<ellipse fill="none" stroke="black" cx="236" cy="-128.5" rx="27" ry="18"/>
<text text-anchor="middle" x="236" y="-124.8" font-family="Times,serif" font-size="14.00">*</text>
</g>
<!-- 140688825700944*&#45;&gt;140688825700944 -->
<g id="edge4" class="edge">
<title>140688825700944*&#45;&gt;140688825700944</title>
<path fill="none" stroke="black" d="M263.01,-128.5C270.52,-128.5 279.21,-128.5 288.47,-128.5"/>
<polygon fill="black" stroke="black" points="288.72,-132 298.72,-128.5 288.72,-125 288.72,-132"/>
</g>
<!-- 140689038893136 -->
<g id="node10" class="node">
<title>140689038893136</title>
<polygon fill="none" stroke="black" points="1584,-136.5 1584,-172.5 1765,-172.5 1765,-136.5 1584,-136.5"/>
<text text-anchor="middle" x="1606.5" y="-150.8" font-family="Times,serif" font-size="14.00">const</text>
<polyline fill="none" stroke="black" points="1629,-136.5 1629,-172.5 "/>
<text text-anchor="middle" x="1663" y="-150.8" font-family="Times,serif" font-size="14.00">1.000000</text>
<polyline fill="none" stroke="black" points="1697,-136.5 1697,-172.5 "/>
<text text-anchor="middle" x="1731" y="-150.8" font-family="Times,serif" font-size="14.00">0.000000</text>
</g>
<!-- 140689038893136&#45;&gt;140689038894096+ -->
<g id="edge27" class="edge">
<title>140689038893136&#45;&gt;140689038894096+</title>
<path fill="none" stroke="black" d="M1765.24,-138.13C1775.22,-136.31 1784.9,-134.54 1793.57,-132.96"/>
<polygon fill="black" stroke="black" points="1794.4,-136.37 1803.61,-131.13 1793.15,-129.48 1794.4,-136.37"/>
</g>
<!-- 140689039102096 -->
<g id="node11" class="node">
<title>140689039102096</title>
<polygon fill="none" stroke="black" points="2283,-106.5 2283,-142.5 2439,-142.5 2439,-106.5 2283,-106.5"/>
<text text-anchor="middle" x="2293" y="-120.8" font-family="Times,serif" font-size="14.00"> </text>
<polyline fill="none" stroke="black" points="2303,-106.5 2303,-142.5 "/>
<text text-anchor="middle" x="2337" y="-120.8" font-family="Times,serif" font-size="14.00">0.146440</text>
<polyline fill="none" stroke="black" points="2371,-106.5 2371,-142.5 "/>
<text text-anchor="middle" x="2405" y="-120.8" font-family="Times,serif" font-size="14.00">0.000000</text>
</g>
<!-- 140689039103440* -->
<g id="node28" class="node">
<title>140689039103440*</title>
<ellipse fill="none" stroke="black" cx="2502" cy="-98.5" rx="27" ry="18"/>
<text text-anchor="middle" x="2502" y="-94.8" font-family="Times,serif" font-size="14.00">*</text>
</g>
<!-- 140689039102096&#45;&gt;140689039103440* -->
<g id="edge19" class="edge">
<title>140689039102096&#45;&gt;140689039103440*</title>
<path fill="none" stroke="black" d="M2439.22,-110.06C2448.54,-108.31 2457.66,-106.61 2465.92,-105.06"/>
<polygon fill="black" stroke="black" points="2466.68,-108.48 2475.87,-103.2 2465.4,-101.6 2466.68,-108.48"/>
</g>
<!-- 140689039102096**&#45;1&#45;&gt;140689039102096 -->
<g id="edge5" class="edge">
<title>140689039102096**&#45;1&#45;&gt;140689039102096</title>
<path fill="none" stroke="black" d="M2194.73,-126.23C2214.98,-126.01 2244.24,-125.71 2272.52,-125.41"/>
<polygon fill="black" stroke="black" points="2272.92,-128.91 2282.88,-125.31 2272.85,-121.91 2272.92,-128.91"/>
</g>
<!-- 140689038875280 -->
<g id="node13" class="node">
<title>140689038875280</title>
<polygon fill="none" stroke="black" points="990,-109.5 990,-145.5 1171,-145.5 1171,-109.5 990,-109.5"/>
<text text-anchor="middle" x="1012.5" y="-123.8" font-family="Times,serif" font-size="14.00">const</text>
<polyline fill="none" stroke="black" points="1035,-109.5 1035,-145.5 "/>
<text text-anchor="middle" x="1069" y="-123.8" font-family="Times,serif" font-size="14.00">2.000000</text>
<polyline fill="none" stroke="black" points="1103,-109.5 1103,-145.5 "/>
<text text-anchor="middle" x="1137" y="-123.8" font-family="Times,serif" font-size="14.00">0.000000</text>
</g>
<!-- 140689038875280&#45;&gt;140689038873168* -->
<g id="edge26" class="edge">
<title>140689038875280&#45;&gt;140689038873168*</title>
<path fill="none" stroke="black" d="M1171.38,-110.89C1180.59,-109.19 1189.52,-107.54 1197.58,-106.05"/>
<polygon fill="black" stroke="black" points="1198.44,-109.45 1207.64,-104.19 1197.17,-102.56 1198.44,-109.45"/>
</g>
<!-- 140688825703568 -->
<g id="node14" class="node">
<title>140688825703568</title>
<polygon fill="none" stroke="black" points="618,-82.5 618,-118.5 864,-118.5 864,-82.5 618,-82.5"/>
<text text-anchor="middle" x="671" y="-96.8" font-family="Times,serif" font-size="14.00">w1*x1 + w2*x2</text>
<polyline fill="none" stroke="black" points="724,-82.5 724,-118.5 "/>
<text text-anchor="middle" x="760" y="-96.8" font-family="Times,serif" font-size="14.00">&#45;6.000000</text>
<polyline fill="none" stroke="black" points="796,-82.5 796,-118.5 "/>
<text text-anchor="middle" x="830" y="-96.8" font-family="Times,serif" font-size="14.00">0.000000</text>
</g>
<!-- 140688825701200+ -->
<g id="node21" class="node">
<title>140688825701200+</title>
<ellipse fill="none" stroke="black" cx="927" cy="-72.5" rx="27" ry="18"/>
<text text-anchor="middle" x="927" y="-68.8" font-family="Times,serif" font-size="14.00">+</text>
</g>
<!-- 140688825703568&#45;&gt;140688825701200+ -->
<g id="edge13" class="edge">
<title>140688825703568&#45;&gt;140688825701200+</title>
<path fill="none" stroke="black" d="M860.35,-82.49C871.08,-80.86 881.29,-79.3 890.32,-77.93"/>
<polygon fill="black" stroke="black" points="890.98,-81.37 900.34,-76.4 889.93,-74.45 890.98,-81.37"/>
</g>
<!-- 140688825703568+&#45;&gt;140688825703568 -->
<g id="edge6" class="edge">
<title>140688825703568+&#45;&gt;140688825703568</title>
<path fill="none" stroke="black" d="M582.36,-100.5C589.73,-100.5 598.28,-100.5 607.5,-100.5"/>
<polygon fill="black" stroke="black" points="607.75,-104 617.75,-100.5 607.75,-97 607.75,-104"/>
</g>
<!-- 140688825703056 -->
<g id="node16" class="node">
<title>140688825703056</title>
<polygon fill="none" stroke="black" points="301,-55.5 301,-91.5 490,-91.5 490,-55.5 301,-55.5"/>
<text text-anchor="middle" x="327.5" y="-69.8" font-family="Times,serif" font-size="14.00">w2*x2</text>
<polyline fill="none" stroke="black" points="354,-55.5 354,-91.5 "/>
<text text-anchor="middle" x="388" y="-69.8" font-family="Times,serif" font-size="14.00">0.000000</text>
<polyline fill="none" stroke="black" points="422,-55.5 422,-91.5 "/>
<text text-anchor="middle" x="456" y="-69.8" font-family="Times,serif" font-size="14.00">0.000000</text>
</g>
<!-- 140688825703056&#45;&gt;140688825703568+ -->
<g id="edge16" class="edge">
<title>140688825703056&#45;&gt;140688825703568+</title>
<path fill="none" stroke="black" d="M490.39,-89.6C500.42,-91.31 510.1,-92.97 518.76,-94.46"/>
<polygon fill="black" stroke="black" points="518.32,-97.93 528.77,-96.17 519.5,-91.03 518.32,-97.93"/>
</g>
<!-- 140688825703056*&#45;&gt;140688825703056 -->
<g id="edge7" class="edge">
<title>140688825703056*&#45;&gt;140688825703056</title>
<path fill="none" stroke="black" d="M263.01,-73.5C271.07,-73.5 280.49,-73.5 290.53,-73.5"/>
<polygon fill="black" stroke="black" points="290.74,-77 300.74,-73.5 290.74,-70 290.74,-77"/>
</g>
<!-- 140688822577808 -->
<g id="node18" class="node">
<title>140688822577808</title>
<polygon fill="none" stroke="black" points="661.5,-27.5 661.5,-63.5 820.5,-63.5 820.5,-27.5 661.5,-27.5"/>
<text text-anchor="middle" x="673" y="-41.8" font-family="Times,serif" font-size="14.00">b</text>
<polyline fill="none" stroke="black" points="684.5,-27.5 684.5,-63.5 "/>
<text text-anchor="middle" x="718.5" y="-41.8" font-family="Times,serif" font-size="14.00">6.881400</text>
<polyline fill="none" stroke="black" points="752.5,-27.5 752.5,-63.5 "/>
<text text-anchor="middle" x="786.5" y="-41.8" font-family="Times,serif" font-size="14.00">0.000000</text>
</g>
<!-- 140688822577808&#45;&gt;140688825701200+ -->
<g id="edge15" class="edge">
<title>140688822577808&#45;&gt;140688825701200+</title>
<path fill="none" stroke="black" d="M820.57,-57.03C844.91,-60.6 870.53,-64.36 890.42,-67.28"/>
<polygon fill="black" stroke="black" points="890.15,-70.78 900.55,-68.77 891.17,-63.85 890.15,-70.78"/>
</g>
<!-- 140689038896400 -->
<g id="node19" class="node">
<title>140689038896400</title>
<polygon fill="none" stroke="black" points="1582,-26.5 1582,-62.5 1767,-62.5 1767,-26.5 1582,-26.5"/>
<text text-anchor="middle" x="1604.5" y="-40.8" font-family="Times,serif" font-size="14.00">const</text>
<polyline fill="none" stroke="black" points="1627,-26.5 1627,-62.5 "/>
<text text-anchor="middle" x="1663" y="-40.8" font-family="Times,serif" font-size="14.00">&#45;1.000000</text>
<polyline fill="none" stroke="black" points="1699,-26.5 1699,-62.5 "/>
<text text-anchor="middle" x="1733" y="-40.8" font-family="Times,serif" font-size="14.00">0.000000</text>
</g>
<!-- 140689038896400&#45;&gt;140689038896464+ -->
<g id="edge21" class="edge">
<title>140689038896400&#45;&gt;140689038896464+</title>
<path fill="none" stroke="black" d="M1767.01,-60.6C1776.49,-62.26 1785.66,-63.88 1793.9,-65.33"/>
<polygon fill="black" stroke="black" points="1793.36,-68.78 1803.81,-67.07 1794.57,-61.89 1793.36,-68.78"/>
</g>
<!-- 140688825701200 -->
<g id="node20" class="node">
<title>140688825701200</title>
<polygon fill="none" stroke="black" points="1001,-54.5 1001,-90.5 1160,-90.5 1160,-54.5 1001,-54.5"/>
<text text-anchor="middle" x="1012.5" y="-68.8" font-family="Times,serif" font-size="14.00">p</text>
<polyline fill="none" stroke="black" points="1024,-54.5 1024,-90.5 "/>
<text text-anchor="middle" x="1058" y="-68.8" font-family="Times,serif" font-size="14.00">0.881400</text>
<polyline fill="none" stroke="black" points="1092,-54.5 1092,-90.5 "/>
<text text-anchor="middle" x="1126" y="-68.8" font-family="Times,serif" font-size="14.00">0.000000</text>
</g>
<!-- 140688825701200&#45;&gt;140689038873168* -->
<g id="edge23" class="edge">
<title>140688825701200&#45;&gt;140689038873168*</title>
<path fill="none" stroke="black" d="M1160.36,-86.55C1173.32,-88.86 1186.17,-91.15 1197.37,-93.15"/>
<polygon fill="black" stroke="black" points="1197.1,-96.66 1207.56,-94.97 1198.32,-89.77 1197.1,-96.66"/>
</g>
<!-- 140688825701200+&#45;&gt;140688825701200 -->
<g id="edge8" class="edge">
<title>140688825701200+&#45;&gt;140688825701200</title>
<path fill="none" stroke="black" d="M954.04,-72.5C964.49,-72.5 977.2,-72.5 990.47,-72.5"/>
<polygon fill="black" stroke="black" points="990.7,-76 1000.7,-72.5 990.7,-69 990.7,-76"/>
</g>
<!-- 140688825679184 -->
<g id="node22" class="node">
<title>140688825679184</title>
<polygon fill="none" stroke="black" points="3.5,-165.5 3.5,-201.5 169.5,-201.5 169.5,-165.5 3.5,-165.5"/>
<text text-anchor="middle" x="18.5" y="-179.8" font-family="Times,serif" font-size="14.00">x1</text>
<polyline fill="none" stroke="black" points="33.5,-165.5 33.5,-201.5 "/>
<text text-anchor="middle" x="67.5" y="-179.8" font-family="Times,serif" font-size="14.00">2.000000</text>
<polyline fill="none" stroke="black" points="101.5,-165.5 101.5,-201.5 "/>
<text text-anchor="middle" x="135.5" y="-179.8" font-family="Times,serif" font-size="14.00">0.000000</text>
</g>
<!-- 140688825679184&#45;&gt;140688825700944* -->
<g id="edge25" class="edge">
<title>140688825679184&#45;&gt;140688825700944*</title>
<path fill="none" stroke="black" d="M148.07,-165.36C156.5,-162.55 165,-159.56 173,-156.5 183.45,-152.51 194.66,-147.63 204.63,-143.08"/>
<polygon fill="black" stroke="black" points="206.15,-146.24 213.74,-138.85 203.2,-139.88 206.15,-146.24"/>
</g>
<!-- 140689038896464 -->
<g id="node23" class="node">
<title>140689038896464</title>
<polygon fill="none" stroke="black" points="2088,-53.5 2088,-89.5 2247,-89.5 2247,-53.5 2088,-53.5"/>
<text text-anchor="middle" x="2099.5" y="-67.8" font-family="Times,serif" font-size="14.00">n</text>
<polyline fill="none" stroke="black" points="2111,-53.5 2111,-89.5 "/>
<text text-anchor="middle" x="2145" y="-67.8" font-family="Times,serif" font-size="14.00">4.828735</text>
<polyline fill="none" stroke="black" points="2179,-53.5 2179,-89.5 "/>
<text text-anchor="middle" x="2213" y="-67.8" font-family="Times,serif" font-size="14.00">0.000000</text>
</g>
<!-- 140689038896464&#45;&gt;140689039103440* -->
<g id="edge17" class="edge">
<title>140689038896464&#45;&gt;140689039103440*</title>
<path fill="none" stroke="black" d="M2247.3,-77.9C2316.11,-83.49 2412.86,-91.34 2464.75,-95.56"/>
<polygon fill="black" stroke="black" points="2464.56,-99.05 2474.81,-96.37 2465.12,-92.08 2464.56,-99.05"/>
</g>
<!-- 140689038896464+&#45;&gt;140689038896464 -->
<g id="edge9" class="edge">
<title>140689038896464+&#45;&gt;140689038896464</title>
<path fill="none" stroke="black" d="M1857.05,-71.5C1903.81,-71.5 2003.98,-71.5 2077.75,-71.5"/>
<polygon fill="black" stroke="black" points="2077.97,-75 2087.97,-71.5 2077.97,-68 2077.97,-75"/>
</g>
<!-- 140688825677200 -->
<g id="node25" class="node">
<title>140688825677200</title>
<polygon fill="none" stroke="black" points="0,-110.5 0,-146.5 173,-146.5 173,-110.5 0,-110.5"/>
<text text-anchor="middle" x="16.5" y="-124.8" font-family="Times,serif" font-size="14.00">w1</text>
<polyline fill="none" stroke="black" points="33,-110.5 33,-146.5 "/>
<text text-anchor="middle" x="69" y="-124.8" font-family="Times,serif" font-size="14.00">&#45;3.000000</text>
<polyline fill="none" stroke="black" points="105,-110.5 105,-146.5 "/>
<text text-anchor="middle" x="139" y="-124.8" font-family="Times,serif" font-size="14.00">0.000000</text>
</g>
<!-- 140688825677200&#45;&gt;140688825700944* -->
<g id="edge14" class="edge">
<title>140688825677200&#45;&gt;140688825700944*</title>
<path fill="none" stroke="black" d="M173.3,-128.5C182.19,-128.5 190.84,-128.5 198.71,-128.5"/>
<polygon fill="black" stroke="black" points="198.92,-132 208.92,-128.5 198.92,-125 198.92,-132"/>
</g>
<!-- 140688824698256 -->
<g id="node26" class="node">
<title>140688824698256</title>
<polygon fill="none" stroke="black" points="3.5,-0.5 3.5,-36.5 169.5,-36.5 169.5,-0.5 3.5,-0.5"/>
<text text-anchor="middle" x="18.5" y="-14.8" font-family="Times,serif" font-size="14.00">x2</text>
<polyline fill="none" stroke="black" points="33.5,-0.5 33.5,-36.5 "/>
<text text-anchor="middle" x="67.5" y="-14.8" font-family="Times,serif" font-size="14.00">0.000000</text>
<polyline fill="none" stroke="black" points="101.5,-0.5 101.5,-36.5 "/>
<text text-anchor="middle" x="135.5" y="-14.8" font-family="Times,serif" font-size="14.00">0.000000</text>
</g>
<!-- 140688824698256&#45;&gt;140688825703056* -->
<g id="edge20" class="edge">
<title>140688824698256&#45;&gt;140688825703056*</title>
<path fill="none" stroke="black" d="M148.07,-36.64C156.5,-39.45 165,-42.44 173,-45.5 183.45,-49.49 194.66,-54.37 204.63,-58.92"/>
<polygon fill="black" stroke="black" points="203.2,-62.12 213.74,-63.15 206.15,-55.76 203.2,-62.12"/>
</g>
<!-- 140689039103440 -->
<g id="node27" class="node">
<title>140689039103440</title>
<polygon fill="none" stroke="black" points="2565,-80.5 2565,-116.5 2724,-116.5 2724,-80.5 2565,-80.5"/>
<text text-anchor="middle" x="2576.5" y="-94.8" font-family="Times,serif" font-size="14.00">o</text>
<polyline fill="none" stroke="black" points="2588,-80.5 2588,-116.5 "/>
<text text-anchor="middle" x="2622" y="-94.8" font-family="Times,serif" font-size="14.00">0.707120</text>
<polyline fill="none" stroke="black" points="2656,-80.5 2656,-116.5 "/>
<text text-anchor="middle" x="2690" y="-94.8" font-family="Times,serif" font-size="14.00">0.000000</text>
</g>
<!-- 140689039103440*&#45;&gt;140689039103440 -->
<g id="edge10" class="edge">
<title>140689039103440*&#45;&gt;140689039103440</title>
<path fill="none" stroke="black" d="M2529.1,-98.5C2536.67,-98.5 2545.4,-98.5 2554.59,-98.5"/>
<polygon fill="black" stroke="black" points="2554.71,-102 2564.71,-98.5 2554.71,-95 2554.71,-102"/>
</g>
</g>
</svg>
