<?xml version="1.0" encoding="UTF-8" standalone="no"?>
<!DOCTYPE svg PUBLIC "-//W3C//DTD SVG 1.1//EN"
 "http://www.w3.org/Graphics/SVG/1.1/DTD/svg11.dtd">
<!-- Generated by graphviz version 3.0.0 (20220226.1711)
 -->
<!-- Pages: 1 -->
<svg width="1442pt" height="210pt"
 viewBox="0.00 0.00 1442.00 210.00" xmlns="http://www.w3.org/2000/svg" xmlns:xlink="http://www.w3.org/1999/xlink">
<g id="graph0" class="graph" transform="scale(1 1) rotate(0) translate(4 206)">
<polygon fill="white" stroke="transparent" points="-4,4 -4,-206 1438,-206 1438,4 -4,4"/>
<!-- 140688825130512 -->
<g id="node1" class="node">
<title>140688825130512</title>
<polygon fill="none" stroke="black" points="0,-165.5 0,-201.5 173,-201.5 173,-165.5 0,-165.5"/>
<text text-anchor="middle" x="16.5" y="-179.8" font-family="Times,serif" font-size="14.00">w1</text>
<polyline fill="none" stroke="black" points="33,-165.5 33,-201.5 "/>
<text text-anchor="middle" x="69" y="-179.8" font-family="Times,serif" font-size="14.00">&#45;3.000000</text>
<polyline fill="none" stroke="black" points="105,-165.5 105,-201.5 "/>
<text text-anchor="middle" x="139" y="-179.8" font-family="Times,serif" font-size="14.00">0.999963</text>
</g>
<!-- 140688827562704* -->
<g id="node6" class="node">
<title>140688827562704*</title>
<ellipse fill="none" stroke="black" cx="236" cy="-128.5" rx="27" ry="18"/>
<text text-anchor="middle" x="236" y="-124.8" font-family="Times,serif" font-size="14.00">*</text>
</g>
<!-- 140688825130512&#45;&gt;140688827562704* -->
<g id="edge8" class="edge">
<title>140688825130512&#45;&gt;140688827562704*</title>
<path fill="none" stroke="black" d="M148.07,-165.36C156.5,-162.55 165,-159.56 173,-156.5 183.45,-152.51 194.66,-147.63 204.63,-143.08"/>
<polygon fill="black" stroke="black" points="206.15,-146.24 213.74,-138.85 203.2,-139.88 206.15,-146.24"/>
</g>
<!-- 140688825128976 -->
<g id="node2" class="node">
<title>140688825128976</title>
<polygon fill="none" stroke="black" points="2,-55.5 2,-91.5 171,-91.5 171,-55.5 2,-55.5"/>
<text text-anchor="middle" x="18.5" y="-69.8" font-family="Times,serif" font-size="14.00">w2</text>
<polyline fill="none" stroke="black" points="35,-55.5 35,-91.5 "/>
<text text-anchor="middle" x="69" y="-69.8" font-family="Times,serif" font-size="14.00">1.000000</text>
<polyline fill="none" stroke="black" points="103,-55.5 103,-91.5 "/>
<text text-anchor="middle" x="137" y="-69.8" font-family="Times,serif" font-size="14.00">0.000000</text>
</g>
<!-- 140688822397136* -->
<g id="node9" class="node">
<title>140688822397136*</title>
<ellipse fill="none" stroke="black" cx="236" cy="-73.5" rx="27" ry="18"/>
<text text-anchor="middle" x="236" y="-69.8" font-family="Times,serif" font-size="14.00">*</text>
</g>
<!-- 140688825128976&#45;&gt;140688822397136* -->
<g id="edge9" class="edge">
<title>140688825128976&#45;&gt;140688822397136*</title>
<path fill="none" stroke="black" d="M171.16,-73.5C180.76,-73.5 190.14,-73.5 198.61,-73.5"/>
<polygon fill="black" stroke="black" points="198.82,-77 208.82,-73.5 198.82,-70 198.82,-77"/>
</g>
<!-- 140688825201808 -->
<g id="node3" class="node">
<title>140688825201808</title>
<polygon fill="none" stroke="black" points="990,-54.5 990,-90.5 1149,-90.5 1149,-54.5 990,-54.5"/>
<text text-anchor="middle" x="1001.5" y="-68.8" font-family="Times,serif" font-size="14.00">n</text>
<polyline fill="none" stroke="black" points="1013,-54.5 1013,-90.5 "/>
<text text-anchor="middle" x="1047" y="-68.8" font-family="Times,serif" font-size="14.00">0.881400</text>
<polyline fill="none" stroke="black" points="1081,-54.5 1081,-90.5 "/>
<text text-anchor="middle" x="1115" y="-68.8" font-family="Times,serif" font-size="14.00">0.499981</text>
</g>
<!-- 140688825203152tanh -->
<g id="node15" class="node">
<title>140688825203152tanh</title>
<ellipse fill="none" stroke="black" cx="1212" cy="-72.5" rx="27" ry="18"/>
<text text-anchor="middle" x="1212" y="-68.8" font-family="Times,serif" font-size="14.00">tanh</text>
</g>
<!-- 140688825201808&#45;&gt;140688825203152tanh -->
<g id="edge10" class="edge">
<title>140688825201808&#45;&gt;140688825203152tanh</title>
<path fill="none" stroke="black" d="M1149.37,-72.5C1158.15,-72.5 1166.74,-72.5 1174.59,-72.5"/>
<polygon fill="black" stroke="black" points="1174.78,-76 1184.78,-72.5 1174.78,-69 1174.78,-76"/>
</g>
<!-- 140688825201808+ -->
<g id="node4" class="node">
<title>140688825201808+</title>
<ellipse fill="none" stroke="black" cx="927" cy="-72.5" rx="27" ry="18"/>
<text text-anchor="middle" x="927" y="-68.8" font-family="Times,serif" font-size="14.00">+</text>
</g>
<!-- 140688825201808+&#45;&gt;140688825201808 -->
<g id="edge1" class="edge">
<title>140688825201808+&#45;&gt;140688825201808</title>
<path fill="none" stroke="black" d="M954.1,-72.5C961.67,-72.5 970.4,-72.5 979.59,-72.5"/>
<polygon fill="black" stroke="black" points="979.71,-76 989.71,-72.5 979.71,-69 979.71,-76"/>
</g>
<!-- 140688827562704 -->
<g id="node5" class="node">
<title>140688827562704</title>
<polygon fill="none" stroke="black" points="299,-110.5 299,-146.5 492,-146.5 492,-110.5 299,-110.5"/>
<text text-anchor="middle" x="325.5" y="-124.8" font-family="Times,serif" font-size="14.00">w1*x1</text>
<polyline fill="none" stroke="black" points="352,-110.5 352,-146.5 "/>
<text text-anchor="middle" x="388" y="-124.8" font-family="Times,serif" font-size="14.00">&#45;6.000000</text>
<polyline fill="none" stroke="black" points="424,-110.5 424,-146.5 "/>
<text text-anchor="middle" x="458" y="-124.8" font-family="Times,serif" font-size="14.00">0.499981</text>
</g>
<!-- 140689583061264+ -->
<g id="node12" class="node">
<title>140689583061264+</title>
<ellipse fill="none" stroke="black" cx="555" cy="-100.5" rx="27" ry="18"/>
<text text-anchor="middle" x="555" y="-96.8" font-family="Times,serif" font-size="14.00">+</text>
</g>
<!-- 140688827562704&#45;&gt;140689583061264+ -->
<g id="edge11" class="edge">
<title>140688827562704&#45;&gt;140689583061264+</title>
<path fill="none" stroke="black" d="M492.2,-111.49C501.52,-109.83 510.5,-108.23 518.6,-106.79"/>
<polygon fill="black" stroke="black" points="519.45,-110.2 528.68,-105 518.23,-103.31 519.45,-110.2"/>
</g>
<!-- 140688827562704*&#45;&gt;140688827562704 -->
<g id="edge2" class="edge">
<title>140688827562704*&#45;&gt;140688827562704</title>
<path fill="none" stroke="black" d="M263.01,-128.5C270.52,-128.5 279.21,-128.5 288.47,-128.5"/>
<polygon fill="black" stroke="black" points="288.72,-132 298.72,-128.5 288.72,-125 288.72,-132"/>
</g>
<!-- 140688825128656 -->
<g id="node7" class="node">
<title>140688825128656</title>
<polygon fill="none" stroke="black" points="1.5,-110.5 1.5,-146.5 171.5,-146.5 171.5,-110.5 1.5,-110.5"/>
<text text-anchor="middle" x="16.5" y="-124.8" font-family="Times,serif" font-size="14.00">x1</text>
<polyline fill="none" stroke="black" points="31.5,-110.5 31.5,-146.5 "/>
<text text-anchor="middle" x="65.5" y="-124.8" font-family="Times,serif" font-size="14.00">2.000000</text>
<polyline fill="none" stroke="black" points="99.5,-110.5 99.5,-146.5 "/>
<text text-anchor="middle" x="135.5" y="-124.8" font-family="Times,serif" font-size="14.00">&#45;1.499944</text>
</g>
<!-- 140688825128656&#45;&gt;140688827562704* -->
<g id="edge6" class="edge">
<title>140688825128656&#45;&gt;140688827562704*</title>
<path fill="none" stroke="black" d="M171.59,-128.5C181.05,-128.5 190.28,-128.5 198.64,-128.5"/>
<polygon fill="black" stroke="black" points="198.72,-132 208.71,-128.5 198.71,-125 198.72,-132"/>
</g>
<!-- 140688822397136 -->
<g id="node8" class="node">
<title>140688822397136</title>
<polygon fill="none" stroke="black" points="301,-55.5 301,-91.5 490,-91.5 490,-55.5 301,-55.5"/>
<text text-anchor="middle" x="327.5" y="-69.8" font-family="Times,serif" font-size="14.00">w2*x2</text>
<polyline fill="none" stroke="black" points="354,-55.5 354,-91.5 "/>
<text text-anchor="middle" x="388" y="-69.8" font-family="Times,serif" font-size="14.00">0.000000</text>
<polyline fill="none" stroke="black" points="422,-55.5 422,-91.5 "/>
<text text-anchor="middle" x="456" y="-69.8" font-family="Times,serif" font-size="14.00">0.499981</text>
</g>
<!-- 140688822397136&#45;&gt;140689583061264+ -->
<g id="edge12" class="edge">
<title>140688822397136&#45;&gt;140689583061264+</title>
<path fill="none" stroke="black" d="M490.39,-89.6C500.42,-91.31 510.1,-92.97 518.76,-94.46"/>
<polygon fill="black" stroke="black" points="518.32,-97.93 528.77,-96.17 519.5,-91.03 518.32,-97.93"/>
</g>
<!-- 140688822397136*&#45;&gt;140688822397136 -->
<g id="edge3" class="edge">
<title>140688822397136*&#45;&gt;140688822397136</title>
<path fill="none" stroke="black" d="M263.01,-73.5C271.07,-73.5 280.49,-73.5 290.53,-73.5"/>
<polygon fill="black" stroke="black" points="290.74,-77 300.74,-73.5 290.74,-70 290.74,-77"/>
</g>
<!-- 140688825129680 -->
<g id="node10" class="node">
<title>140688825129680</title>
<polygon fill="none" stroke="black" points="661.5,-27.5 661.5,-63.5 820.5,-63.5 820.5,-27.5 661.5,-27.5"/>
<text text-anchor="middle" x="673" y="-41.8" font-family="Times,serif" font-size="14.00">b</text>
<polyline fill="none" stroke="black" points="684.5,-27.5 684.5,-63.5 "/>
<text text-anchor="middle" x="718.5" y="-41.8" font-family="Times,serif" font-size="14.00">6.881400</text>
<polyline fill="none" stroke="black" points="752.5,-27.5 752.5,-63.5 "/>
<text text-anchor="middle" x="786.5" y="-41.8" font-family="Times,serif" font-size="14.00">0.499981</text>
</g>
<!-- 140688825129680&#45;&gt;140688825201808+ -->
<g id="edge13" class="edge">
<title>140688825129680&#45;&gt;140688825201808+</title>
<path fill="none" stroke="black" d="M820.57,-57.03C844.91,-60.6 870.53,-64.36 890.42,-67.28"/>
<polygon fill="black" stroke="black" points="890.15,-70.78 900.55,-68.77 891.17,-63.85 890.15,-70.78"/>
</g>
<!-- 140689583061264 -->
<g id="node11" class="node">
<title>140689583061264</title>
<polygon fill="none" stroke="black" points="618,-82.5 618,-118.5 864,-118.5 864,-82.5 618,-82.5"/>
<text text-anchor="middle" x="671" y="-96.8" font-family="Times,serif" font-size="14.00">w1*x1 + w2*x2</text>
<polyline fill="none" stroke="black" points="724,-82.5 724,-118.5 "/>
<text text-anchor="middle" x="760" y="-96.8" font-family="Times,serif" font-size="14.00">&#45;6.000000</text>
<polyline fill="none" stroke="black" points="796,-82.5 796,-118.5 "/>
<text text-anchor="middle" x="830" y="-96.8" font-family="Times,serif" font-size="14.00">0.499981</text>
</g>
<!-- 140689583061264&#45;&gt;140688825201808+ -->
<g id="edge7" class="edge">
<title>140689583061264&#45;&gt;140688825201808+</title>
<path fill="none" stroke="black" d="M860.35,-82.49C871.08,-80.86 881.29,-79.3 890.32,-77.93"/>
<polygon fill="black" stroke="black" points="890.98,-81.37 900.34,-76.4 889.93,-74.45 890.98,-81.37"/>
</g>
<!-- 140689583061264+&#45;&gt;140689583061264 -->
<g id="edge4" class="edge">
<title>140689583061264+&#45;&gt;140689583061264</title>
<path fill="none" stroke="black" d="M582.36,-100.5C589.73,-100.5 598.28,-100.5 607.5,-100.5"/>
<polygon fill="black" stroke="black" points="607.75,-104 617.75,-100.5 607.75,-97 607.75,-104"/>
</g>
<!-- 140688825130320 -->
<g id="node13" class="node">
<title>140688825130320</title>
<polygon fill="none" stroke="black" points="3.5,-0.5 3.5,-36.5 169.5,-36.5 169.5,-0.5 3.5,-0.5"/>
<text text-anchor="middle" x="18.5" y="-14.8" font-family="Times,serif" font-size="14.00">x2</text>
<polyline fill="none" stroke="black" points="33.5,-0.5 33.5,-36.5 "/>
<text text-anchor="middle" x="67.5" y="-14.8" font-family="Times,serif" font-size="14.00">0.000000</text>
<polyline fill="none" stroke="black" points="101.5,-0.5 101.5,-36.5 "/>
<text text-anchor="middle" x="135.5" y="-14.8" font-family="Times,serif" font-size="14.00">0.499981</text>
</g>
<!-- 140688825130320&#45;&gt;140688822397136* -->
<g id="edge14" class="edge">
<title>140688825130320&#45;&gt;140688822397136*</title>
<path fill="none" stroke="black" d="M145.25,-36.59C154.58,-39.75 164.1,-43.11 173,-46.5 183.2,-50.38 194.18,-55.01 204.01,-59.32"/>
<polygon fill="black" stroke="black" points="202.84,-62.63 213.4,-63.5 205.68,-56.24 202.84,-62.63"/>
</g>
<!-- 140688825203152 -->
<g id="node14" class="node">
<title>140688825203152</title>
<polygon fill="none" stroke="black" points="1275,-54.5 1275,-90.5 1434,-90.5 1434,-54.5 1275,-54.5"/>
<text text-anchor="middle" x="1286.5" y="-68.8" font-family="Times,serif" font-size="14.00">o</text>
<polyline fill="none" stroke="black" points="1298,-54.5 1298,-90.5 "/>
<text text-anchor="middle" x="1332" y="-68.8" font-family="Times,serif" font-size="14.00">0.707120</text>
<polyline fill="none" stroke="black" points="1366,-54.5 1366,-90.5 "/>
<text text-anchor="middle" x="1400" y="-68.8" font-family="Times,serif" font-size="14.00">1.000000</text>
</g>
<!-- 140688825203152tanh&#45;&gt;140688825203152 -->
<g id="edge5" class="edge">
<title>140688825203152tanh&#45;&gt;140688825203152</title>
<path fill="none" stroke="black" d="M1239.1,-72.5C1246.67,-72.5 1255.4,-72.5 1264.59,-72.5"/>
<polygon fill="black" stroke="black" points="1264.71,-76 1274.71,-72.5 1264.71,-69 1264.71,-76"/>
</g>
</g>
</svg>
