<svg xmlns="http://www.w3.org/2000/svg" viewBox="0 0 1000 600" width="1000" height="600" font-family="'JetBrains Mono','SF Mono',Menlo,Consolas,'DejaVu Sans Mono',monospace" xml:space="preserve"><defs><marker id="a3dff9a" viewBox="0 0 10 10" refX="8.5" refY="5" markerWidth="7" markerHeight="7" orient="auto-start-reverse"><path d="M0,0 L10,5 L0,10 z" fill="#3dff9a"/></marker><marker id="a1f9b5c" viewBox="0 0 10 10" refX="8.5" refY="5" markerWidth="7" markerHeight="7" orient="auto-start-reverse"><path d="M0,0 L10,5 L0,10 z" fill="#1f9b5c"/></marker><marker id="af5c542" viewBox="0 0 10 10" refX="8.5" refY="5" markerWidth="7" markerHeight="7" orient="auto-start-reverse"><path d="M0,0 L10,5 L0,10 z" fill="#f5c542"/></marker><marker id="a5ad7ff" viewBox="0 0 10 10" refX="8.5" refY="5" markerWidth="7" markerHeight="7" orient="auto-start-reverse"><path d="M0,0 L10,5 L0,10 z" fill="#5ad7ff"/></marker><marker id="aff7edb" viewBox="0 0 10 10" refX="8.5" refY="5" markerWidth="7" markerHeight="7" orient="auto-start-reverse"><path d="M0,0 L10,5 L0,10 z" fill="#ff7edb"/></marker><marker id="aa78bfa" viewBox="0 0 10 10" refX="8.5" refY="5" markerWidth="7" markerHeight="7" orient="auto-start-reverse"><path d="M0,0 L10,5 L0,10 z" fill="#a78bfa"/></marker><marker id="aff9f5a" viewBox="0 0 10 10" refX="8.5" refY="5" markerWidth="7" markerHeight="7" orient="auto-start-reverse"><path d="M0,0 L10,5 L0,10 z" fill="#ff9f5a"/></marker><marker id="aff5f56" viewBox="0 0 10 10" refX="8.5" refY="5" markerWidth="7" markerHeight="7" orient="auto-start-reverse"><path d="M0,0 L10,5 L0,10 z" fill="#ff5f56"/></marker><marker id="a7f8e89" viewBox="0 0 10 10" refX="8.5" refY="5" markerWidth="7" markerHeight="7" orient="auto-start-reverse"><path d="M0,0 L10,5 L0,10 z" fill="#7f8e89"/></marker><marker id="ad3ddd8" viewBox="0 0 10 10" refX="8.5" refY="5" markerWidth="7" markerHeight="7" orient="auto-start-reverse"><path d="M0,0 L10,5 L0,10 z" fill="#d3ddd8"/></marker><filter id="glow" x="-30%" y="-30%" width="160%" height="160%"><feGaussianBlur stdDeviation="2.4" result="b"/><feMerge><feMergeNode in="b"/><feMergeNode in="SourceGraphic"/></feMerge></filter><pattern id="dots" width="20" height="20" patternUnits="userSpaceOnUse"><circle cx="1" cy="1" r="1" fill="#1d2729"/></pattern></defs><rect width="1000" height="600" fill="#0c1011"/><rect width="1000" height="600" fill="url(#dots)"/><rect width="1000" height="34" fill="#121819"/><line x1="0" y1="34" x2="1000" y2="34" stroke="#1d2729"/><circle cx="20" cy="17" r="5.5" fill="#ff5f56"/><circle cx="38" cy="17" r="5.5" fill="#ffbd2e"/><circle cx="56" cy="17" r="5.5" fill="#27c93f"/><text x="500.0" y="21.5" font-size="12" fill="#7f8e89" text-anchor="middle">~/workshop/elasticskip/elasticskip.svg</text><rect x="24.0" y="50.0" width="952.0" height="92.0" rx="10" fill="#121819" fill-opacity="1.0" stroke="#2a3739" stroke-opacity="1.0" stroke-width="1.2"/><text x="44.0" y="74.0" font-size="12" fill="#d3ddd8" text-anchor="start" font-weight="700" fill-opacity="1.0">asymmetric retrieval</text><text x="44.0" y="96.0" font-size="11" fill="#7f8e89" text-anchor="start" font-weight="400" fill-opacity="1.0">documents</text><text x="44.0" y="124.0" font-size="11" fill="#7f8e89" text-anchor="start" font-weight="400" fill-opacity="1.0">query</text><rect x="140.0" y="84.0" width="230.0" height="22.0" rx="5" fill="#a78bfa" fill-opacity="0.1" stroke="#a78bfa" stroke-opacity="0.7" stroke-width="1.2"/><text x="255.0" y="99.0" font-size="10" fill="#a78bfa" text-anchor="middle" font-weight="400" fill-opacity="1.0">full encoder · offline · frozen index</text><rect x="140.0" y="112.0" width="230.0" height="22.0" rx="5" fill="#3dff9a" fill-opacity="0.12" stroke="#3dff9a" stroke-opacity="0.8" stroke-width="1.2"/><text x="255.0" y="127.0" font-size="10" fill="#3dff9a" text-anchor="middle" font-weight="400" fill-opacity="1.0">ElasticSkip · online, every request</text><path d="M372.0,95.0 L520.0,108.0" fill="none" stroke="#7f8e89" stroke-width="1.2" stroke-opacity="1.0" stroke-linecap="round" stroke-linejoin="round" marker-end="url(#a7f8e89)"/><path d="M372.0,123.0 L520.0,112.0" fill="none" stroke="#3dff9a" stroke-width="1.2" stroke-opacity="1.0" stroke-linecap="round" stroke-linejoin="round" marker-end="url(#a3dff9a)"/><circle cx="534.0" cy="110.0" r="13" fill="#0c1011" stroke="#f5c542" stroke-width="1.4" filter="url(#glow)"/><text x="534.0" y="115.0" font-size="20" fill="#f5c542" text-anchor="middle" font-weight="700" fill-opacity="1.0">·</text><text x="556.0" y="106.0" font-size="11" fill="#f5c542" text-anchor="start" font-weight="700" fill-opacity="1.0">one dot product</text><text x="556.0" y="122.0" font-size="10" fill="#7f8e89" text-anchor="start" font-weight="400" fill-opacity="1.0">only the query side is on the clock</text><rect x="120.0" y="494.0" width="190.0" height="11.0" rx="2" fill="#5ad7ff" fill-opacity="0.35" stroke="#5ad7ff" stroke-opacity="0.8" stroke-width="1.2"/><rect x="120.0" y="482.0" width="190.0" height="11.0" rx="2" fill="#5ad7ff" fill-opacity="0.35" stroke="#5ad7ff" stroke-opacity="0.8" stroke-width="1.2"/><rect x="120.0" y="470.0" width="190.0" height="11.0" rx="2" fill="#5ad7ff" fill-opacity="0.35" stroke="#5ad7ff" stroke-opacity="0.8" stroke-width="1.2"/><rect x="120.0" y="458.0" width="190.0" height="11.0" rx="2" fill="#5ad7ff" fill-opacity="0.35" stroke="#5ad7ff" stroke-opacity="0.8" stroke-width="1.2"/><rect x="120.0" y="446.0" width="190.0" height="11.0" rx="2" fill="#5ad7ff" fill-opacity="0.35" stroke="#5ad7ff" stroke-opacity="0.8" stroke-width="1.2"/><rect x="120.0" y="434.0" width="190.0" height="11.0" rx="2" fill="#5ad7ff" fill-opacity="0.35" stroke="#5ad7ff" stroke-opacity="0.8" stroke-width="1.2"/><rect x="120.0" y="422.0" width="190.0" height="11.0" rx="2" fill="#5ad7ff" fill-opacity="0.35" stroke="#5ad7ff" stroke-opacity="0.8" stroke-width="1.2"/><rect x="120.0" y="410.0" width="190.0" height="11.0" rx="2" fill="#5ad7ff" fill-opacity="0.35" stroke="#5ad7ff" stroke-opacity="0.8" stroke-width="1.2"/><rect x="120.0" y="398.0" width="190.0" height="11.0" rx="2" fill="#2a3739" fill-opacity="0.25" stroke="#1d2729" stroke-opacity="0.6" stroke-width="1.2"/><rect x="120.0" y="386.0" width="190.0" height="11.0" rx="2" fill="#2a3739" fill-opacity="0.25" stroke="#1d2729" stroke-opacity="0.6" stroke-width="1.2"/><rect x="120.0" y="374.0" width="190.0" height="11.0" rx="2" fill="#2a3739" fill-opacity="0.25" stroke="#1d2729" stroke-opacity="0.6" stroke-width="1.2"/><rect x="120.0" y="362.0" width="190.0" height="11.0" rx="2" fill="#2a3739" fill-opacity="0.25" stroke="#1d2729" stroke-opacity="0.6" stroke-width="1.2"/><rect x="120.0" y="350.0" width="190.0" height="11.0" rx="2" fill="#2a3739" fill-opacity="0.25" stroke="#1d2729" stroke-opacity="0.6" stroke-width="1.2"/><rect x="120.0" y="338.0" width="190.0" height="11.0" rx="2" fill="#2a3739" fill-opacity="0.25" stroke="#1d2729" stroke-opacity="0.6" stroke-width="1.2"/><rect x="120.0" y="326.0" width="190.0" height="11.0" rx="2" fill="#2a3739" fill-opacity="0.25" stroke="#1d2729" stroke-opacity="0.6" stroke-width="1.2"/><rect x="120.0" y="314.0" width="190.0" height="11.0" rx="2" fill="#2a3739" fill-opacity="0.25" stroke="#1d2729" stroke-opacity="0.6" stroke-width="1.2"/><rect x="120.0" y="302.0" width="190.0" height="11.0" rx="2" fill="#2a3739" fill-opacity="0.25" stroke="#1d2729" stroke-opacity="0.6" stroke-width="1.2"/><rect x="120.0" y="290.0" width="190.0" height="11.0" rx="2" fill="#2a3739" fill-opacity="0.25" stroke="#1d2729" stroke-opacity="0.6" stroke-width="1.2"/><rect x="120.0" y="278.0" width="190.0" height="11.0" rx="2" fill="#2a3739" fill-opacity="0.25" stroke="#1d2729" stroke-opacity="0.6" stroke-width="1.2"/><rect x="120.0" y="266.0" width="190.0" height="11.0" rx="2" fill="#2a3739" fill-opacity="0.25" stroke="#1d2729" stroke-opacity="0.6" stroke-width="1.2"/><rect x="120.0" y="254.0" width="190.0" height="11.0" rx="2" fill="#2a3739" fill-opacity="0.25" stroke="#1d2729" stroke-opacity="0.6" stroke-width="1.2"/><rect x="120.0" y="242.0" width="190.0" height="11.0" rx="2" fill="#2a3739" fill-opacity="0.25" stroke="#1d2729" stroke-opacity="0.6" stroke-width="1.2"/><rect x="120.0" y="230.0" width="190.0" height="11.0" rx="2" fill="#3dff9a" fill-opacity="0.4" stroke="#3dff9a" stroke-opacity="0.85" stroke-width="1.2"/><rect x="120.0" y="218.0" width="190.0" height="11.0" rx="2" fill="#3dff9a" fill-opacity="0.4" stroke="#3dff9a" stroke-opacity="0.85" stroke-width="1.2"/><rect x="120.0" y="206.0" width="190.0" height="11.0" rx="2" fill="#3dff9a" fill-opacity="0.4" stroke="#3dff9a" stroke-opacity="0.85" stroke-width="1.2"/><rect x="120.0" y="194.0" width="190.0" height="11.0" rx="2" fill="#3dff9a" fill-opacity="0.4" stroke="#3dff9a" stroke-opacity="0.85" stroke-width="1.2"/><rect x="120.0" y="182.0" width="190.0" height="11.0" rx="2" fill="#3dff9a" fill-opacity="0.4" stroke="#3dff9a" stroke-opacity="0.85" stroke-width="1.2"/><rect x="120.0" y="170.0" width="190.0" height="11.0" rx="2" fill="#3dff9a" fill-opacity="0.4" stroke="#3dff9a" stroke-opacity="0.85" stroke-width="1.2"/><text x="106.0" y="208.0" font-size="12" fill="#3dff9a" text-anchor="end" font-weight="700" fill-opacity="1.0">tail</text><text x="106.0" y="224.0" font-size="10" fill="#7f8e89" text-anchor="end" font-weight="400" fill-opacity="1.0">kept</text><text x="106.0" y="330.0" font-size="12" fill="#7f8e89" text-anchor="end" font-weight="700" fill-opacity="1.0">middle</text><text x="106.0" y="346.0" font-size="10" fill="#7f8e89" text-anchor="end" font-weight="400" fill-opacity="1.0">skip k</text><text x="106.0" y="462.0" font-size="12" fill="#5ad7ff" text-anchor="end" font-weight="700" fill-opacity="1.0">prefix</text><text x="106.0" y="478.0" font-size="10" fill="#7f8e89" text-anchor="end" font-weight="400" fill-opacity="1.0">kept</text><text x="215.0" y="528.0" font-size="12" fill="#d3ddd8" text-anchor="middle" font-weight="700" fill-opacity="1.0">one base model</text><rect x="330.0" y="170.0" width="150.0" height="70.0" rx="7" fill="#ff7edb" fill-opacity="0.1" stroke="#ff7edb" stroke-opacity="0.8" stroke-width="1.2"/><text x="405.0" y="200.0" font-size="11.5" fill="#ff7edb" text-anchor="middle" font-weight="700" fill-opacity="1.0">per-depth LoRA</text><text x="405.0" y="218.0" font-size="9.5" fill="#7f8e89" text-anchor="middle" font-weight="400" fill-opacity="1.0">one small adapter per k</text><rect x="330.0" y="420.0" width="150.0" height="70.0" rx="7" fill="#f5c542" fill-opacity="0.1" stroke="#f5c542" stroke-opacity="0.8" stroke-width="1.2"/><text x="405.0" y="450.0" font-size="11.5" fill="#f5c542" text-anchor="middle" font-weight="700" fill-opacity="1.0">shared LoRA</text><text x="405.0" y="468.0" font-size="9.5" fill="#7f8e89" text-anchor="middle" font-weight="400" fill-opacity="1.0">active at every depth</text><path d="M330,205 L314,205" fill="none" stroke="#ff7edb" stroke-width="1.3" stroke-opacity="1.0" stroke-linecap="round" stroke-linejoin="round" marker-end="url(#aff7edb)"/><path d="M330,455 L314,455" fill="none" stroke="#f5c542" stroke-width="1.3" stroke-opacity="1.0" stroke-linecap="round" stroke-linejoin="round" marker-end="url(#af5c542)"/><text x="640.0" y="184.0" font-size="12.5" fill="#d3ddd8" text-anchor="start" font-weight="700" fill-opacity="1.0">pick the depth at deploy time</text><text x="640.0" y="202.0" font-size="10" fill="#7f8e89" text-anchor="start" font-weight="400" fill-opacity="1.0">merge its adapters, serve at a fixed depth</text><rect x="640.0" y="230.0" width="9.0" height="30.0" rx="1.5" fill="#5ad7ff" fill-opacity="0.45" stroke="#5ad7ff" stroke-opacity="0.85" stroke-width="1.2"/><rect x="651.0" y="230.0" width="9.0" height="30.0" rx="1.5" fill="#5ad7ff" fill-opacity="0.45" stroke="#5ad7ff" stroke-opacity="0.85" stroke-width="1.2"/><rect x="662.0" y="230.0" width="9.0" height="30.0" rx="1.5" fill="#5ad7ff" fill-opacity="0.45" stroke="#5ad7ff" stroke-opacity="0.85" stroke-width="1.2"/><rect x="673.0" y="230.0" width="9.0" height="30.0" rx="1.5" fill="#5ad7ff" fill-opacity="0.45" stroke="#5ad7ff" stroke-opacity="0.85" stroke-width="1.2"/><rect x="684.0" y="230.0" width="9.0" height="30.0" rx="1.5" fill="#5ad7ff" fill-opacity="0.45" stroke="#5ad7ff" stroke-opacity="0.85" stroke-width="1.2"/><rect x="695.0" y="230.0" width="9.0" height="30.0" rx="1.5" fill="#5ad7ff" fill-opacity="0.45" stroke="#5ad7ff" stroke-opacity="0.85" stroke-width="1.2"/><rect x="706.0" y="230.0" width="9.0" height="30.0" rx="1.5" fill="#5ad7ff" fill-opacity="0.45" stroke="#5ad7ff" stroke-opacity="0.85" stroke-width="1.2"/><rect x="717.0" y="230.0" width="9.0" height="30.0" rx="1.5" fill="#5ad7ff" fill-opacity="0.45" stroke="#5ad7ff" stroke-opacity="0.85" stroke-width="1.2"/><rect x="728.0" y="230.0" width="9.0" height="30.0" rx="1.5" fill="#3dff9a" fill-opacity="0.45" stroke="#3dff9a" stroke-opacity="0.85" stroke-width="1.2"/><rect x="739.0" y="230.0" width="9.0" height="30.0" rx="1.5" fill="#3dff9a" fill-opacity="0.45" stroke="#3dff9a" stroke-opacity="0.85" stroke-width="1.2"/><rect x="750.0" y="230.0" width="9.0" height="30.0" rx="1.5" fill="#3dff9a" fill-opacity="0.45" stroke="#3dff9a" stroke-opacity="0.85" stroke-width="1.2"/><rect x="761.0" y="230.0" width="9.0" height="30.0" rx="1.5" fill="#3dff9a" fill-opacity="0.45" stroke="#3dff9a" stroke-opacity="0.85" stroke-width="1.2"/><rect x="772.0" y="230.0" width="9.0" height="30.0" rx="1.5" fill="#3dff9a" fill-opacity="0.45" stroke="#3dff9a" stroke-opacity="0.85" stroke-width="1.2"/><rect x="783.0" y="230.0" width="9.0" height="30.0" rx="1.5" fill="#3dff9a" fill-opacity="0.45" stroke="#3dff9a" stroke-opacity="0.85" stroke-width="1.2"/><rect x="794.0" y="230.0" width="9.0" height="30.0" rx="1.5" fill="#3dff9a" fill-opacity="0.45" stroke="#3dff9a" stroke-opacity="0.85" stroke-width="1.2"/><rect x="805.0" y="230.0" width="9.0" height="30.0" rx="1.5" fill="#3dff9a" fill-opacity="0.45" stroke="#3dff9a" stroke-opacity="0.85" stroke-width="1.2"/><rect x="816.0" y="230.0" width="9.0" height="30.0" rx="1.5" fill="#3dff9a" fill-opacity="0.45" stroke="#3dff9a" stroke-opacity="0.85" stroke-width="1.2"/><rect x="827.0" y="230.0" width="9.0" height="30.0" rx="1.5" fill="#3dff9a" fill-opacity="0.45" stroke="#3dff9a" stroke-opacity="0.85" stroke-width="1.2"/><rect x="838.0" y="230.0" width="9.0" height="30.0" rx="1.5" fill="#3dff9a" fill-opacity="0.45" stroke="#3dff9a" stroke-opacity="0.85" stroke-width="1.2"/><rect x="849.0" y="230.0" width="9.0" height="30.0" rx="1.5" fill="#3dff9a" fill-opacity="0.45" stroke="#3dff9a" stroke-opacity="0.85" stroke-width="1.2"/><rect x="860.0" y="230.0" width="9.0" height="30.0" rx="1.5" fill="#3dff9a" fill-opacity="0.45" stroke="#3dff9a" stroke-opacity="0.85" stroke-width="1.2"/><rect x="871.0" y="230.0" width="9.0" height="30.0" rx="1.5" fill="#3dff9a" fill-opacity="0.45" stroke="#3dff9a" stroke-opacity="0.85" stroke-width="1.2"/><rect x="882.0" y="230.0" width="9.0" height="30.0" rx="1.5" fill="#3dff9a" fill-opacity="0.45" stroke="#3dff9a" stroke-opacity="0.85" stroke-width="1.2"/><rect x="893.0" y="230.0" width="9.0" height="30.0" rx="1.5" fill="#3dff9a" fill-opacity="0.45" stroke="#3dff9a" stroke-opacity="0.85" stroke-width="1.2"/><text x="640.0" y="280.0" font-size="11.5" fill="#d3ddd8" text-anchor="start" font-weight="700" fill-opacity="1.0">k = 4  →  24 layers</text><text x="820.0" y="280.0" font-size="10.5" fill="#7f8e89" text-anchor="start" font-weight="400" fill-opacity="1.0">light load</text><rect x="640.0" y="316.0" width="9.0" height="30.0" rx="1.5" fill="#5ad7ff" fill-opacity="0.45" stroke="#5ad7ff" stroke-opacity="0.85" stroke-width="1.2"/><rect x="651.0" y="316.0" width="9.0" height="30.0" rx="1.5" fill="#5ad7ff" fill-opacity="0.45" stroke="#5ad7ff" stroke-opacity="0.85" stroke-width="1.2"/><rect x="662.0" y="316.0" width="9.0" height="30.0" rx="1.5" fill="#5ad7ff" fill-opacity="0.45" stroke="#5ad7ff" stroke-opacity="0.85" stroke-width="1.2"/><rect x="673.0" y="316.0" width="9.0" height="30.0" rx="1.5" fill="#5ad7ff" fill-opacity="0.45" stroke="#5ad7ff" stroke-opacity="0.85" stroke-width="1.2"/><rect x="684.0" y="316.0" width="9.0" height="30.0" rx="1.5" fill="#5ad7ff" fill-opacity="0.45" stroke="#5ad7ff" stroke-opacity="0.85" stroke-width="1.2"/><rect x="695.0" y="316.0" width="9.0" height="30.0" rx="1.5" fill="#5ad7ff" fill-opacity="0.45" stroke="#5ad7ff" stroke-opacity="0.85" stroke-width="1.2"/><rect x="706.0" y="316.0" width="9.0" height="30.0" rx="1.5" fill="#5ad7ff" fill-opacity="0.45" stroke="#5ad7ff" stroke-opacity="0.85" stroke-width="1.2"/><rect x="717.0" y="316.0" width="9.0" height="30.0" rx="1.5" fill="#5ad7ff" fill-opacity="0.45" stroke="#5ad7ff" stroke-opacity="0.85" stroke-width="1.2"/><rect x="728.0" y="316.0" width="9.0" height="30.0" rx="1.5" fill="#3dff9a" fill-opacity="0.45" stroke="#3dff9a" stroke-opacity="0.85" stroke-width="1.2"/><rect x="739.0" y="316.0" width="9.0" height="30.0" rx="1.5" fill="#3dff9a" fill-opacity="0.45" stroke="#3dff9a" stroke-opacity="0.85" stroke-width="1.2"/><rect x="750.0" y="316.0" width="9.0" height="30.0" rx="1.5" fill="#3dff9a" fill-opacity="0.45" stroke="#3dff9a" stroke-opacity="0.85" stroke-width="1.2"/><rect x="761.0" y="316.0" width="9.0" height="30.0" rx="1.5" fill="#3dff9a" fill-opacity="0.45" stroke="#3dff9a" stroke-opacity="0.85" stroke-width="1.2"/><rect x="772.0" y="316.0" width="9.0" height="30.0" rx="1.5" fill="#3dff9a" fill-opacity="0.45" stroke="#3dff9a" stroke-opacity="0.85" stroke-width="1.2"/><rect x="783.0" y="316.0" width="9.0" height="30.0" rx="1.5" fill="#3dff9a" fill-opacity="0.45" stroke="#3dff9a" stroke-opacity="0.85" stroke-width="1.2"/><rect x="794.0" y="316.0" width="9.0" height="30.0" rx="1.5" fill="#3dff9a" fill-opacity="0.45" stroke="#3dff9a" stroke-opacity="0.85" stroke-width="1.2"/><rect x="805.0" y="316.0" width="9.0" height="30.0" rx="1.5" fill="#3dff9a" fill-opacity="0.45" stroke="#3dff9a" stroke-opacity="0.85" stroke-width="1.2"/><rect x="816.0" y="316.0" width="9.0" height="30.0" rx="1.5" fill="#3dff9a" fill-opacity="0.45" stroke="#3dff9a" stroke-opacity="0.85" stroke-width="1.2"/><rect x="827.0" y="316.0" width="9.0" height="30.0" rx="1.5" fill="#3dff9a" fill-opacity="0.45" stroke="#3dff9a" stroke-opacity="0.85" stroke-width="1.2"/><text x="640.0" y="366.0" font-size="11.5" fill="#d3ddd8" text-anchor="start" font-weight="700" fill-opacity="1.0">k = 10  →  18 layers</text><text x="820.0" y="366.0" font-size="10.5" fill="#7f8e89" text-anchor="start" font-weight="400" fill-opacity="1.0">busy</text><rect x="640.0" y="402.0" width="9.0" height="30.0" rx="1.5" fill="#5ad7ff" fill-opacity="0.45" stroke="#5ad7ff" stroke-opacity="0.85" stroke-width="1.2"/><rect x="651.0" y="402.0" width="9.0" height="30.0" rx="1.5" fill="#5ad7ff" fill-opacity="0.45" stroke="#5ad7ff" stroke-opacity="0.85" stroke-width="1.2"/><rect x="662.0" y="402.0" width="9.0" height="30.0" rx="1.5" fill="#5ad7ff" fill-opacity="0.45" stroke="#5ad7ff" stroke-opacity="0.85" stroke-width="1.2"/><rect x="673.0" y="402.0" width="9.0" height="30.0" rx="1.5" fill="#5ad7ff" fill-opacity="0.45" stroke="#5ad7ff" stroke-opacity="0.85" stroke-width="1.2"/><rect x="684.0" y="402.0" width="9.0" height="30.0" rx="1.5" fill="#5ad7ff" fill-opacity="0.45" stroke="#5ad7ff" stroke-opacity="0.85" stroke-width="1.2"/><rect x="695.0" y="402.0" width="9.0" height="30.0" rx="1.5" fill="#5ad7ff" fill-opacity="0.45" stroke="#5ad7ff" stroke-opacity="0.85" stroke-width="1.2"/><rect x="706.0" y="402.0" width="9.0" height="30.0" rx="1.5" fill="#5ad7ff" fill-opacity="0.45" stroke="#5ad7ff" stroke-opacity="0.85" stroke-width="1.2"/><rect x="717.0" y="402.0" width="9.0" height="30.0" rx="1.5" fill="#5ad7ff" fill-opacity="0.45" stroke="#5ad7ff" stroke-opacity="0.85" stroke-width="1.2"/><rect x="728.0" y="402.0" width="9.0" height="30.0" rx="1.5" fill="#3dff9a" fill-opacity="0.45" stroke="#3dff9a" stroke-opacity="0.85" stroke-width="1.2"/><rect x="739.0" y="402.0" width="9.0" height="30.0" rx="1.5" fill="#3dff9a" fill-opacity="0.45" stroke="#3dff9a" stroke-opacity="0.85" stroke-width="1.2"/><rect x="750.0" y="402.0" width="9.0" height="30.0" rx="1.5" fill="#3dff9a" fill-opacity="0.45" stroke="#3dff9a" stroke-opacity="0.85" stroke-width="1.2"/><rect x="761.0" y="402.0" width="9.0" height="30.0" rx="1.5" fill="#3dff9a" fill-opacity="0.45" stroke="#3dff9a" stroke-opacity="0.85" stroke-width="1.2"/><rect x="772.0" y="402.0" width="9.0" height="30.0" rx="1.5" fill="#3dff9a" fill-opacity="0.45" stroke="#3dff9a" stroke-opacity="0.85" stroke-width="1.2"/><rect x="783.0" y="402.0" width="9.0" height="30.0" rx="1.5" fill="#3dff9a" fill-opacity="0.45" stroke="#3dff9a" stroke-opacity="0.85" stroke-width="1.2"/><text x="640.0" y="452.0" font-size="11.5" fill="#d3ddd8" text-anchor="start" font-weight="700" fill-opacity="1.0">k = 14  →  14 layers</text><text x="820.0" y="452.0" font-size="10.5" fill="#7f8e89" text-anchor="start" font-weight="400" fill-opacity="1.0">peak traffic</text><path d="M486,338.0 C560,338.0 580,300 626,300" fill="none" stroke="#1f9b5c" stroke-width="1.4" stroke-opacity="1.0" stroke-linecap="round" stroke-linejoin="round" stroke-dasharray="5 4" marker-end="url(#a1f9b5c)"/><text x="500.0" y="578.0" font-size="11.5" fill="#7f8e89" text-anchor="middle" font-weight="400" fill-opacity="1.0">no retraining and no re-indexing per latency target: a new operating point is a cheap adapter</text></svg>
